<svg xmlns="http://www.w3.org/2000/svg" width="1101.089" height="844.612" viewBox="0 0 1101.089 844.612"><defs><style>.a{fill:#fadcde;}.b{fill:#26264f;}.c,.e{fill:#fff;}.c{opacity:0.3;}.d{fill:#b7c0ce;}.e{opacity:0.82;}</style></defs><g transform="translate(659.443 -206.513)"><g transform="translate(-659.443 206.513)"><path class="a" d="M1126.065,737.212c-29.836-150.7-152.218-335.82-393.945-355.185,0,0-183.541-17.21-364.473,8.893C260.261,406.4,166.108,452.537,106.526,518.8S27.033,665.854,51.193,742.919c15.692,50.051,26.285,101.833,23.371,153.25C70.892,961.032,64,1029.2,101.153,1089.666c54.452,88.6,187.305,114.7,303.252,123.019,42.736,3.066,85.594,4.31,128.361,6.92,82.043,5.008,174.011-3.1,253.079-19.577C1188.743,1116.1,1155.9,887.913,1126.065,737.212Z" transform="translate(-41.167 -376.462)"/><g transform="translate(884.945 32.185)"><g transform="translate(0 50.581)"><path class="b" d="M3079.223,705.526h-.03l-2.61,3.066L3043.8,747.109l-.061.061L2999.7,706.133l33.57-39.033,33.509,28.015Z" transform="translate(-2986.657 -661.65)"/><path class="b" d="M3149.943,693.021h0a14,14,0,0,1-1.821,2.367,5.648,5.648,0,0,1-.789.7c-5.16,4.462-13.6,4.431-22.006.607a43.567,43.567,0,0,1-12.232-8.529c-11.23-10.988-14.994-25.557-9.075-33.539a9.578,9.578,0,0,1,1.153-1.336c7.5-7.649,23.189-4.4,35.057,7.194a39.894,39.894,0,0,1,3.43,3.794C3151.7,674.142,3154.284,685.767,3149.943,693.021Z" transform="translate(-3057.377 -649.146)"/><path class="c" d="M3168.13,727.674h0a14.02,14.02,0,0,1-1.821,2.367,5.642,5.642,0,0,1-.789.7l-32.811,38.517s.395-23.189-3.855-26.74.971-3.187,9.986-8.377c1.518-.88,3.066-1.791,4.644-2.823,5.433-3.491,10.593-7.983,12.2-14.053a16.731,16.731,0,0,0,0-8.317c-1.305-5.433,1.943-8.438,6.1-10.047C3169.89,708.795,3172.471,720.42,3168.13,727.674Z" transform="translate(-3075.564 -683.798)"/><ellipse class="b" cx="19.365" cy="30.11" rx="19.365" ry="30.11" transform="translate(0 57.803) rotate(-45.587)"/><ellipse class="d" cx="15.753" cy="23.25" rx="15.753" ry="23.25" transform="translate(5.693 60.666) rotate(-45.587)"/></g><path class="b" d="M3100.84,650.278a2.066,2.066,0,0,1-2.064-2.064V603.626a7.979,7.979,0,0,0-.03-.88c-.486-.364-.668-.364-1.032-.273l-52.662,12.505a1.638,1.638,0,0,0-1.214,1.73l.546,22.34a2.08,2.08,0,1,1-4.158.091l-.546-22.279a5.764,5.764,0,0,1,4.4-5.919l52.661-12.505a5.087,5.087,0,0,1,4.613,1.093,4.646,4.646,0,0,1,1.518,4.158v44.527A2.021,2.021,0,0,1,3100.84,650.278Z" transform="translate(-3014.497 -563.136)"/><path class="b" d="M3123.664,529.182a2.066,2.066,0,0,1-2.064-2.064V484.564a2.064,2.064,0,0,1,4.128,0v42.524A2.073,2.073,0,0,1,3123.664,529.182Z" transform="translate(-3071.557 -482.5)"/></g><g transform="translate(71.222 32.185)"><g transform="translate(0 50.581)"><path class="b" d="M282.7,705.526h.03l2.58,3.066,32.811,38.517.061.061,44.041-41.037L328.654,667.1l-33.509,28.015Z" transform="translate(-280.611 -661.65)"/><path class="b" d="M277.906,693.021h0a14.009,14.009,0,0,0,1.821,2.367,5.656,5.656,0,0,0,.789.7c5.16,4.462,13.6,4.431,22.006.607a43.567,43.567,0,0,0,12.232-8.529c11.23-10.988,14.994-25.557,9.075-33.539a9.583,9.583,0,0,0-1.153-1.336c-7.5-7.649-23.189-4.4-35.057,7.194a39.914,39.914,0,0,0-3.43,3.794C276.146,674.142,273.566,685.767,277.906,693.021Z" transform="translate(-275.817 -649.146)"/><path class="c" d="M277.911,727.674h0a14.01,14.01,0,0,0,1.821,2.367,5.653,5.653,0,0,0,.789.7l32.811,38.517s-.395-23.189,3.855-26.74-.971-3.187-9.986-8.377c-1.518-.88-3.066-1.791-4.644-2.823-5.433-3.491-10.593-7.983-12.2-14.053a16.732,16.732,0,0,1,0-8.317c1.305-5.433-1.943-8.438-6.1-10.047C276.151,708.795,273.571,720.42,277.911,727.674Z" transform="translate(-275.822 -683.798)"/><ellipse class="b" cx="30.11" cy="19.365" rx="30.11" ry="19.365" transform="translate(24.515 72.268) rotate(-44.413)"/><ellipse class="e" cx="23.25" cy="15.753" rx="23.25" ry="15.753" transform="translate(33.666 70.683) rotate(-44.413)"/></g><path class="b" d="M297.564,650.248a2.066,2.066,0,0,1-2.064-2.064V603.961a5.066,5.066,0,0,1,6.344-5.555l52.692,12.505a5.787,5.787,0,0,1,4.4,5.979l-.668,22.248a2.074,2.074,0,0,1-2.064,2h-.061a2.067,2.067,0,0,1-2-2.125l.668-22.279a1.657,1.657,0,0,0-1.214-1.791L300.9,602.443a1.2,1.2,0,0,0-1.153.3,4.345,4.345,0,0,0-.091,1.214v44.224A2.092,2.092,0,0,1,297.564,650.248Z" transform="translate(-289.526 -563.106)"/><path class="b" d="M410.364,529.182a2.066,2.066,0,0,1-2.064-2.064V484.564a2.064,2.064,0,1,1,4.128,0v42.524A2.054,2.054,0,0,1,410.364,529.182Z" transform="translate(-368.088 -482.5)"/></g><path class="e" d="M1195.812,1040.484a451.843,451.843,0,0,0-22.491-76.579L260.045,811.9c-29.988.729-33.236,32.538-33.236,32.538l-84.926,399.378c-2.094,50.932.273,102.349,29.017,149.122,54.452,88.6,187.305,114.7,303.252,123.019,42.736,3.066,85.594,4.31,128.361,6.92,82.043,5.008,174.011-3.1,253.079-19.577C1258.49,1419.375,1225.649,1191.185,1195.812,1040.484Z" transform="translate(-110.914 -679.734)"/><path class="e" d="M1151.738,1177.057,999.4,864.336c-8.681-15.6-5.463-30.292-25.951-44.891-20.579-14.66-76.579,10.077-76.579,10.077-10.9.668-576.667,133.308-842.069,195.622a224.938,224.938,0,0,0,5.888,23.037c15.692,50.051,26.285,101.833,23.371,153.25-3.673,64.863-10.563,133.035,26.589,193.5,54.452,88.6,187.305,114.7,303.252,123.019,42.736,3.066,85.594,4.31,128.361,6.92,82.043,5.008,174.011-3.1,253.079-19.577C1089.516,1444.038,1151.4,1305.843,1151.738,1177.057Z" transform="translate(-50.662 -681.754)"/></g></g></svg>