<svg xmlns="http://www.w3.org/2000/svg" width="224.364" height="70" viewBox="0 0 224.364 70"><defs><style>.a{fill:#e8505b;}</style></defs><g transform="translate(-45.203 -60.992)"><path class="a" d="M95.783,130.805c-.057,0-.057,0-.113.057-.566.566-.453,7.76-2.606,7.873-2.209.113-4.475-12.971-4.985-21.581s1.189-14.784,1.076-16.483S86.89,97.9,84.4,98.009c-4.418.283-7.533,12.8-7.59,14.9-.17-3.568.736-17.219.566-19.938s-3.512-2.832-4.928-2.775c-5.721.34-9.969,20.448-10.139,21.467-.963-15.747-4.815-16.993-8.326-16.823-3.625.227-9.4,4.7-8.723,15.577.453,6.854,5.041,11.952,10.705,11.612a3.825,3.825,0,0,0,.793-.113c-.736,7.533-1.982,12.8-1.869,14.5.113,1.473,4.475,3.285,5.778,3.172,1.189-.057,1.133-.963,1.02-3.059l-.057-.566c-.793-12.461,6.627-41.236,8.723-41.406.113,0,.227.34.227,1.02.227,3.682-.85,16.993-.283,26.169.283,4.192.906,7.42,2.1,8.5a6.587,6.587,0,0,0,4.3,1.869c.68-.057,1.133-.4,1.076-1.02-.113-1.813-.623-3.512-.793-5.721-.4-5.891,3.342-22.034,4.531-22.091.057,0,.057.057.057.113A57.109,57.109,0,0,0,81,116.3c.793,13.084,3.172,26.962,13.311,26.282,2.209-.113,2.662-4.3,2.436-7.647C96.689,132.675,96.179,130.749,95.783,130.805ZM56.926,119.817a5.893,5.893,0,0,1-1.133.453c-1.982.113-5.381-1.473-5.778-8.156-.51-7.987,1.813-14.557,4.078-14.67s2.832,5.041,3,7.817A102.135,102.135,0,0,1,56.926,119.817Z" transform="translate(0 -15.063)"/><path class="a" d="M194.959,98.55c4.135-.283,5.834-5.154,6.457-9.516a6.46,6.46,0,0,0,6.117,2.719c1.926-.113,3.455-6.684,4.475-12.291,1.529,8.326,4.871,12.971,8.666,12.745,4.928-.283,6.174-12.461,6.061-14.614-.057-.736-1.133-1.133-1.813-1.076-.283,0-.51.17-.51.34-.34,4.871-1.926,9.912-3.342,9.969-.963.057-2.379-1.813-2.662-6.231-.34-5.268.227-15.747.17-16.653-.057-1.076-2.832-3.059-4.418-2.945q-1.189.085-1.869,1.7a4.4,4.4,0,0,0-3.625-1.359c-4.475.283-9.629,4.475-9.006,20.561h0c.057,1.359-.68,13.821-4.248,14.047-.793.057-1.416-1.02-1.643-3.965-.227-3.229.4-14.274.227-16.313-.17-2.832-7.08-4.475-10.932-5.608l-.113-1.813c-.057-1.189-1.189-1.586-2.379-1.529-1.529.113-3.285,1.02-3.229,2.266.057,1.189,1.473,1.926,3.342,2.549.4,7.647,0,17.786-.113,20.221-.227,3.8-1.756,6.74-4.418,6.91-2.889.17-5.268-6.854-8.61-11.1,4.361-2.209,7.024-7.194,6.854-10.592-.113-2.152-2.889-3.285-4.815-3.172-.793.057-.906.17-.85.68,0,.283.113.793.17,1.359.283,4.135-2.209,7.76-4.588,9.686a4.266,4.266,0,0,0-3.342,1.529c.51-11.328,3.852-19.825,5.494-21.751,1.359-1.529,2.379-.85,2.322-1.756-.057-.793-1.926-1.246-4.022-1.133-1.926.113-4.078.736-5.211,2.039-3.908,4.531-4.645,24.809-4.022,35.062h0c.057,2.775-2.039,10.535-3.455,10.592-.963.057-2.379-1.813-2.662-6.231-.34-5.268.227-15.747.17-16.653-.057-1.076-2.832-3.059-4.418-2.945q-1.189.085-1.869,1.7a4.4,4.4,0,0,0-3.625-1.359c-4.645.283-10.026,4.758-8.893,22.26.283,4.7,2.492,8.61,7.817,8.27,1.926-.113,3.455-6.684,4.475-12.291,1.529,8.326,4.871,12.971,8.666,12.745,3.512-.227,5.154-6.4,5.721-10.762a6.482,6.482,0,0,0,4.928,1.416c.906-.057,1.473-.4,1.416-.963-.057-1.3-2.1-1.473-2.719-11.838-.113-1.756-.17-3.4-.113-5.041a6.276,6.276,0,0,0,1.586.227c3.852,3.455,5.154,18.919,13.028,18.409,4.078-.283,6.967-7.08,7.364-13.368a.28.28,0,0,0,.057-.17s.51-12.631.227-21.128c2.209.68,4.3,1.473,4.361,2.775.113,1.529-.623,9.4-.34,14.161C187.425,93.906,188.9,98.947,194.959,98.55Zm14.784-34.608c.85-.057,1.3.85,1.7,2.039a36.89,36.89,0,0,0-.113,6.74c-.85,5.778-2.549,15.633-3.908,15.69-.793.057-1.246-.906-1.473-3.965C205.324,75.1,206.854,64.112,209.742,63.942Zm-67.518,32c-.85,5.778-2.549,15.633-3.908,15.69-.793.057-1.246-.906-1.473-3.965-.566-9.289.963-20.335,3.8-20.5.85-.057,1.3.85,1.7,2.039A43.106,43.106,0,0,0,142.225,95.945Z" transform="translate(-39.784)"/><path class="a" d="M314.474,102.841c2.606-.17,2.662-4.192,3.512-5.154a1.04,1.04,0,0,0,.283-.85,3.288,3.288,0,0,0-3.512-3.342,6.171,6.171,0,0,0-3.285,1.586c-.68.736-.906,1.473-.793,3.455C310.849,101.482,313.341,102.9,314.474,102.841Z" transform="translate(-120.259 -14.793)"/><path class="a" d="M361.464,98.193c-.057-.736-1.133-1.133-1.813-1.076-.283,0-.51.17-.51.34-.34,4.871-1.926,9.912-3.342,9.969-.963.057-2.379-1.813-2.662-6.231-.34-5.268.227-15.747.17-16.653-.057-1.076-2.832-3.059-4.418-2.945q-1.189.085-1.869,1.7a4.4,4.4,0,0,0-3.625-1.359c-4.475.283-9.629,4.475-9.006,20.448h0c.057,1.529-.623,13.877-4.192,14.1-.793.057-1.416-.963-1.643-3.965-.227-3.229.4-14.274.227-16.313-.17-2.775-7.08-4.475-10.932-5.608l-.113-1.813c-.057-1.189-1.189-1.586-2.379-1.529-1.529.113-3.285,1.02-3.229,2.209s1.473,1.926,3.342,2.549c.34,7.533.057,17.446-.057,20.108h0c-.34,4.871-1.926,9.912-3.342,9.969-.963.057-2.379-1.813-2.662-6.231-.34-5.268.227-15.747.17-16.653-.057-1.076-2.832-3.059-4.418-2.945q-1.19.085-1.869,1.7a4.4,4.4,0,0,0-3.625-1.359c-4.531.283-9.8,4.588-8.949,21.241h0c.17,2.209-1.359,9.459-4.758,9.686-.736.057-1.076-1.926-1.246-4.531-.34-5.438.17-13.877.17-13.877a1.188,1.188,0,0,0,.34-1.076,2.946,2.946,0,0,0-1.02-2.379,5.093,5.093,0,0,0-3.4-1.189,2.5,2.5,0,0,0-1.586.623c-.85.906-1.19,6.967-.793,12.8.113,1.473.227,2.889.4,4.248h0c.34,1.756-.68,16.2-4.192,16.37-1.416.113-2.606-2.606-2.832-6a158.958,158.958,0,0,1-.057-18.465c-.057-1.246-.68-3.8-5.947-3.455-1.359.113-3,3.172-4.361,7.137.17-3.342.283-6.174.227-7.307-.057-1.3-1.133-4.022-6.457-3.682-2.039.113-4.928,8.1-7.08,15.577-.68-4.361-1.982-8.383-4.078-10.309a4.363,4.363,0,0,0-3.285-1.246,1.7,1.7,0,0,0-1.359,1.586c.057.68,2.492,2.379,2.662,5.608.85,13.368-.736,15.18-.566,18.126s4.248,5.1,6.571,4.928c1.133-.057,1.359-.906,1.359-1.7a1.907,1.907,0,0,0-.4-1.133s.057-3.682-.17-8.27c1.133-9.346,4.588-19.6,5.664-19.655,0,0-1.643,9.233-.68,24.809.113,2.039,4.3,3.852,6.231,3.738,1.02-.057,1.246-.51,1.189-1.473-.057-.906-.34-2.209-.453-4.078-.057-.793-.057-2.1-.057-3.682.793-8.1,3.285-15.407,4.418-15.463,0,0-.963.623,0,16.2a14.864,14.864,0,0,0,3.965,9.742c1.02.85,3.512,2.436,5.608,2.266,4.645-.283,5.947-7.93,6.287-13.254,1.756,1.529,4.135,2.606,5.1,2.492,2.549-.17,5.381-3.738,6.231-7.477h0a6.532,6.532,0,0,0,6.174,2.775c1.926-.113,3.455-6.684,4.475-12.291,1.529,8.326,4.871,12.971,8.666,12.745,4.361-.283,5.834-9.686,6-13.424v-.113s.51-12.688.17-21.184c2.209.68,4.3,1.473,4.362,2.775.113,1.529-.623,9.4-.34,14.161.283,4.7,1.756,9.8,7.76,9.4,4.078-.283,5.778-5.1,6.457-9.459a6.445,6.445,0,0,0,6.061,2.662c1.926-.113,3.455-6.684,4.475-12.291,1.529,8.326,4.871,12.971,8.666,12.745C360.388,112.523,361.634,100.345,361.464,98.193Zm-59.078,9.856c-.85,5.778-2.549,15.633-3.908,15.69-.793.057-1.246-.906-1.473-3.965-.566-9.289.963-20.335,3.8-20.5.85-.057,1.3.85,1.7,2.039A32.514,32.514,0,0,0,302.386,108.048Zm43.728-14.727c-.85,5.778-2.549,15.633-3.908,15.69-.793.057-1.246-.906-1.473-3.965-.566-9.289.963-20.335,3.8-20.5.85-.057,1.3.85,1.7,2.039A32.614,32.614,0,0,0,346.114,93.321Z" transform="translate(-91.912 -11.338)"/></g></svg>