<?xml version="1.0" encoding="utf-8"?>
<!-- Generator: Adobe Illustrator 25.2.0, SVG Export Plug-In . SVG Version: 6.00 Build 0)  -->
<svg version="1.1" id="Warstwa_1" xmlns="http://www.w3.org/2000/svg" xmlns:xlink="http://www.w3.org/1999/xlink" x="0px" y="0px"
	 viewBox="0 0 500 250" style="enable-background:new 0 0 500 250;" xml:space="preserve">
<style type="text/css">
	.st0{fill:#477C0F;}
</style>
<g>
	<path class="st0" d="M134.5,161.9c-0.1,0-0.1,0-0.2,0.1c-1,1-0.8,13.7-4.6,13.9c-3.9,0.2-7.9-22.9-8.8-38.1
		c-0.9-15.2,2.1-26.1,1.9-29.1s-4-4.9-8.4-4.7c-7.8,0.5-13.3,22.6-13.4,26.3c-0.3-6.3,1.3-30.4,1-35.2c-0.3-4.8-6.2-5-8.7-4.9
		c-10.1,0.6-17.6,36.1-17.9,37.9c-1.7-27.8-8.5-30-14.7-29.7c-6.4,0.4-16.6,8.3-15.4,27.5c0.8,12.1,8.9,21.1,18.9,20.5
		c0.5,0,0.9-0.1,1.4-0.2c-1.3,13.3-3.5,22.6-3.3,25.6c0.2,2.6,7.9,5.8,10.2,5.6c2.1-0.1,2-1.7,1.8-5.4l-0.1-1
		c-1.4-22,11.7-72.8,15.4-73.1c0.2,0,0.4,0.6,0.4,1.8c0.4,6.5-1.5,30-0.5,46.2c0.5,7.4,1.6,13.1,3.7,15c2.5,2.2,5.6,3.5,7.6,3.3
		c1.2-0.1,2-0.7,1.9-1.8c-0.2-3.2-1.1-6.2-1.4-10.1c-0.7-10.4,5.9-38.9,8-39c0.1,0,0.1,0.1,0.1,0.2c0.1,1.3-1.9,8-1,22.8
		c1.4,23.1,5.6,47.6,23.5,46.4c3.9-0.2,4.7-7.6,4.3-13.5C136.1,165.2,135.2,161.8,134.5,161.9z M65.9,142.5c-0.7,0.3-1.4,0.7-2,0.8
		c-3.5,0.2-9.5-2.6-10.2-14.4c-0.9-14.1,3.2-25.7,7.2-25.9c4-0.2,5,8.9,5.3,13.8C66.8,126.2,66.5,134.8,65.9,142.5z"/>
	<path class="st0" d="M244.2,127.3c7.3-0.5,10.3-9.1,11.4-16.8c2.2,3.2,5.7,5.1,10.8,4.8c3.4-0.2,6.1-11.8,7.9-21.7
		c2.7,14.7,8.6,22.9,15.3,22.5c8.7-0.5,10.9-22,10.7-25.8c-0.1-1.3-2-2-3.2-1.9c-0.5,0-0.9,0.3-0.9,0.6c-0.6,8.6-3.4,17.5-5.9,17.6
		c-1.7,0.1-4.2-3.2-4.7-11c-0.6-9.3,0.4-27.8,0.3-29.4c-0.1-1.9-5-5.4-7.8-5.2c-1.4,0.1-2.5,1.1-3.3,3c-1.8-2-4.2-2.5-6.4-2.4
		c-7.9,0.5-17,7.9-15.9,36.3l0,0c0.1,2.4-1.2,24.4-7.5,24.8c-1.4,0.1-2.5-1.8-2.9-7c-0.4-5.7,0.7-25.2,0.4-28.8
		c-0.3-5-12.5-7.9-19.3-9.9l-0.2-3.2c-0.1-2.1-2.1-2.8-4.2-2.7c-2.7,0.2-5.8,1.8-5.7,4c0.1,2.1,2.6,3.4,5.9,4.5
		c0.7,13.5,0,31.4-0.2,35.7c-0.4,6.7-3.1,11.9-7.8,12.2c-5.1,0.3-9.3-12.1-15.2-19.6c7.7-3.9,12.4-12.7,12.1-18.7
		c-0.2-3.8-5.1-5.8-8.5-5.6c-1.4,0.1-1.6,0.3-1.5,1.2c0,0.5,0.2,1.4,0.3,2.4c0.5,7.3-3.9,13.7-8.1,17.1c-2.2,0.1-4.9,1-5.9,2.7
		c0.9-20,6.8-35,9.7-38.4c2.4-2.7,4.2-1.5,4.1-3.1c-0.1-1.4-3.4-2.2-7.1-2c-3.4,0.2-7.2,1.3-9.2,3.6c-6.9,8-8.2,43.8-7.1,61.9l0,0
		c0.1,4.9-3.6,18.6-6.1,18.7c-1.7,0.1-4.2-3.2-4.7-11c-0.6-9.3,0.4-27.8,0.3-29.4c-0.1-1.9-5-5.4-7.8-5.2c-1.4,0.1-2.5,1.1-3.3,3
		c-1.8-2-4.2-2.5-6.4-2.4c-8.2,0.5-17.7,8.4-15.7,39.3c0.5,8.3,4.4,15.2,13.8,14.6c3.4-0.2,6.1-11.8,7.9-21.7
		c2.7,14.7,8.6,22.9,15.3,22.5c6.2-0.4,9.1-11.3,10.1-19c2.5,2.3,5.9,2.7,8.7,2.5c1.6-0.1,2.6-0.7,2.5-1.7
		c-0.1-2.3-3.7-2.6-4.8-20.9c-0.2-3.1-0.3-6-0.2-8.9c0.8,0.3,1.7,0.3,2.8,0.4c6.8,6.1,9.1,33.4,23,32.5c7.2-0.5,12.3-12.5,13-23.6
		c0.1-0.1,0.1-0.3,0.1-0.3s0.9-22.3,0.4-37.3c3.9,1.2,7.6,2.6,7.7,4.9c0.2,2.7-1.1,16.6-0.6,25C230.9,119.1,233.5,128,244.2,127.3z
		 M270.3,66.2c1.5-0.1,2.3,1.5,3,3.6c-0.4,3.3-0.5,7.3-0.2,11.9c-1.5,10.2-4.5,27.6-6.9,27.7c-1.4,0.1-2.2-1.6-2.6-7
		C262.5,85.9,265.2,66.5,270.3,66.2z M151.1,122.7c-1.5,10.2-4.5,27.6-6.9,27.7c-1.4,0.1-2.2-1.6-2.6-7c-1-16.4,1.7-35.9,6.7-36.2
		c1.5-0.1,2.3,1.5,3,3.6C150.9,114.2,150.9,118.2,151.1,122.7z"/>
	<path class="st0" d="M317.4,110c4.6-0.3,4.7-7.4,6.2-9.1c0.3-0.3,0.6-0.9,0.5-1.5c-0.2-3.4-2.5-6.1-6.2-5.9
		c-1.6,0.1-4.7,1.5-5.8,2.8c-1.2,1.3-1.6,2.6-1.4,6.1C311,107.6,315.4,110.1,317.4,110z"/>
	<path class="st0" d="M454.9,110.9c-0.1-1.3-2-2-3.2-1.9c-0.5,0-0.9,0.3-0.9,0.6c-0.6,8.6-3.4,17.5-5.9,17.6
		c-1.7,0.1-4.2-3.2-4.7-11c-0.6-9.3,0.4-27.8,0.3-29.4c-0.1-1.9-5-5.4-7.8-5.2c-1.4,0.1-2.5,1.1-3.3,3c-1.8-2-4.2-2.5-6.4-2.4
		c-7.9,0.5-17,7.9-15.9,36.1l0,0c0.1,2.7-1.1,24.5-7.4,24.9c-1.4,0.1-2.5-1.7-2.9-7c-0.4-5.7,0.7-25.2,0.4-28.8
		c-0.3-4.9-12.5-7.9-19.3-9.9l-0.2-3.2c-0.1-2.1-2.1-2.8-4.2-2.7c-2.7,0.2-5.8,1.8-5.7,3.9c0.1,2.1,2.6,3.4,5.9,4.5
		c0.6,13.3,0.1,30.8-0.1,35.5l0,0c-0.6,8.6-3.4,17.5-5.9,17.6c-1.7,0.1-4.2-3.2-4.7-11c-0.6-9.3,0.4-27.8,0.3-29.4
		c-0.1-1.9-5-5.4-7.8-5.2c-1.4,0.1-2.5,1.1-3.3,3c-1.8-2-4.2-2.5-6.4-2.4c-8,0.5-17.3,8.1-15.8,37.5l0,0c0.3,3.9-2.4,16.7-8.4,17.1
		c-1.3,0.1-1.9-3.4-2.2-8c-0.6-9.6,0.3-24.5,0.3-24.5s0.7-0.5,0.6-1.9c-0.1-2.1-0.7-3.3-1.8-4.2c-1.6-1.4-4-2.2-6-2.1
		c-1.1,0.1-2.1,0.4-2.8,1.1c-1.5,1.6-2.1,12.3-1.4,22.6c0.2,2.6,0.4,5.1,0.7,7.5l0,0c0.6,3.1-1.2,28.6-7.4,28.9
		c-2.5,0.2-4.6-4.6-5-10.6c-1.2-19.9,0-30.8-0.1-32.6c-0.1-2.2-1.2-6.7-10.5-6.1c-2.4,0.2-5.3,5.6-7.7,12.6
		c0.3-5.9,0.5-10.9,0.4-12.9c-0.1-2.3-2-7.1-11.4-6.5c-3.6,0.2-8.7,14.3-12.5,27.5c-1.2-7.7-3.5-14.8-7.2-18.2
		c-2.6-2.3-4.7-2.2-5.8-2.2c-1.1,0.1-2.4,1.4-2.4,2.8c0.1,1.2,4.4,4.2,4.7,9.9c1.5,23.6-1.3,26.8-1,32s7.5,9,11.6,8.7
		c2-0.1,2.4-1.6,2.4-3c-0.1-0.8-0.3-1.7-0.7-2c0,0,0.1-6.5-0.3-14.6c2-16.5,8.1-34.6,10-34.7c0,0-2.9,16.3-1.2,43.8
		c0.2,3.6,7.6,6.8,11,6.6c1.8-0.1,2.2-0.9,2.1-2.6c-0.1-1.6-0.6-3.9-0.8-7.2c-0.1-1.4-0.1-3.7-0.1-6.5c1.4-14.3,5.8-27.2,7.8-27.3
		c0,0-1.7,1.1,0,28.6c0.6,9.9,5.3,15.6,7,17.2c1.8,1.5,6.2,4.3,9.9,4c8.2-0.5,10.5-14,11.1-23.4c3.1,2.7,7.3,4.6,9,4.4
		c4.5-0.3,9.5-6.6,11-13.2l0,0c2.2,3.2,5.7,5.2,10.9,4.9c3.4-0.2,6.1-11.8,7.9-21.7c2.7,14.7,8.6,22.9,15.3,22.5
		c7.7-0.5,10.3-17.1,10.6-23.7c0-0.1,0-0.2,0-0.2s0.9-22.4,0.3-37.4c3.9,1.2,7.6,2.6,7.7,4.9c0.2,2.7-1.1,16.6-0.6,25
		c0.5,8.3,3.1,17.3,13.7,16.6c7.2-0.5,10.2-9,11.4-16.7c2.2,3.1,5.6,5,10.7,4.7c3.4-0.2,6.1-11.8,7.9-21.7
		c2.7,14.7,8.6,22.9,15.3,22.5C453,136.2,455.2,114.7,454.9,110.9z M350.6,128.3c-1.5,10.2-4.5,27.6-6.9,27.7
		c-1.4,0.1-2.2-1.6-2.6-7c-1-16.4,1.7-35.9,6.7-36.2c1.5-0.1,2.3,1.5,3,3.6C350.3,119.7,350.3,123.8,350.6,128.3z M427.8,102.3
		c-1.5,10.2-4.5,27.6-6.9,27.7c-1.4,0.1-2.2-1.6-2.6-7c-1-16.4,1.7-35.9,6.7-36.2c1.5-0.1,2.3,1.5,3,3.6
		C427.5,93.8,427.5,97.8,427.8,102.3z"/>
</g>
</svg>
