<svg xmlns="http://www.w3.org/2000/svg" width="418.915" height="461.856" viewBox="0 0 418.915 461.856"><defs><style>.a{fill:#fff;}.b{fill:#375a64;}.c{fill:#ff4f5b;}.d{opacity:0.4;}.e{fill:#fafafa;}</style></defs><g transform="translate(-185.7 -305.845)"><g transform="translate(325.666 305.844)"><path class="a" d="M386.722,501.472a13.788,13.788,0,0,1-.656-1.639c-.328-.983-.656-2.622-1.311-4.589-.983-3.934-2.622-9.834-4.917-17.045-4.261-15.078-10.161-36.713-17.373-63.263-14.423-53.43-34.746-127.182-56.708-208.8H307.4a1.2,1.2,0,0,1-.328.983c-20,82.275-39.007,156.684-53.758,210.441-7.211,26.879-13.439,48.513-17.7,63.263-2.294,7.539-3.933,13.112-5.245,17.045-.656,1.967-.983,3.278-1.311,4.589a13.789,13.789,0,0,1-.656,1.639,5.736,5.736,0,0,1,.328-1.639c.328-.983.656-2.622,1.311-4.589.983-3.934,2.622-9.834,4.917-17.373,4.261-15.078,10.161-36.713,17.373-63.591,14.423-53.758,33.435-127.838,53.1-210.441a1.2,1.2,0,0,1,.328-.983l.656-3.278.983,3.278c21.962,81.62,41.957,155.372,56.38,208.8,7.211,26.551,12.784,48.185,17.045,63.263,1.967,7.539,3.606,13.112,4.589,17.373.328,1.967.983,3.278.983,4.589A14.9,14.9,0,0,1,386.722,501.472Z" transform="translate(-228.4 -202.2)"/></g><g transform="translate(185.7 378.286)"><path class="b" d="M229.1,293l19.012,99.648,121.61-1.639,16.717-96.37Z" transform="translate(-86.839 -67.808)"/><g transform="translate(226.503 122.593)"><g transform="translate(0 33.607)"><path class="c" d="M257.75,302.366c8.523,5.245,18.356,6.228,26.223,2.295S297.085,292.2,298.4,282.043a31.982,31.982,0,0,0-26.223-1.311c-7.867,3.278-14.095,10.489-17.373,19.34" transform="translate(-254.8 -256.977)"/><path class="c" d="M279.65,310.766c8.523,5.245,18.356,6.228,26.223,2.295s13.112-12.456,14.423-22.617a31.982,31.982,0,0,0-26.223-1.311c-7.867,3.278-14.095,10.489-17.373,19.34" transform="translate(-204.914 -237.842)"/><path class="c" d="M266.211,282.925c4.261,9.178,12.128,15.078,20.651,16.062s18.028-3.278,24.256-11.145c-4.917-8.195-12.456-13.767-20.979-15.406s-17.7.983-25.24,6.556" transform="translate(-231.793 -271.953)"/><path class="c" d="M292.242,285.1c-9.834,0-19.012,4.261-23.6,11.473s-4.917,17.373-.656,26.879c9.506-.983,18.028-5.572,22.945-12.456a32.467,32.467,0,0,0,4.917-25.568" transform="translate(-231.601 -242.005)"/><path class="c" d="M283.267,301.739c-4.261,8.85-4.261,19.012.656,26.223,4.589,7.211,13.767,11.8,23.929,11.8,3.278-9.178,2.622-18.684-1.639-26.223S294.74,302.395,285.234,300.1" transform="translate(-197.058 -207.836)"/></g><g transform="translate(30.965)"><path class="c" d="M361.119,395.11c0,.328-1.639-2.295-6.228-3.934-2.295-.983-5.245-1.311-8.523-1.639-3.278,0-7.211.328-11.473.656s-9.178.656-14.423-1.311c-4.917-1.639-9.178-6.228-11.8-11.473s-3.934-11.473-5.245-17.373c-1.311-6.228-2.622-12.456-6.228-18.028s-8.523-9.506-13.439-13.439-9.506-7.867-12.784-12.784a42,42,0,0,1-6.228-29.5,41.387,41.387,0,0,1,7.867-19.012,25.99,25.99,0,0,1,3.934-4.261c.983-.983,1.311-1.311,1.639-1.311a7.275,7.275,0,0,1-1.311,1.639c-.983.983-1.967,2.295-3.606,4.261a46.11,46.11,0,0,0-7.211,18.684c-.983,8.523,0,19.34,6.556,28.518,3.278,4.589,7.867,8.523,12.456,12.456s9.834,8.195,13.767,13.767c3.606,5.9,4.917,12.456,6.228,18.356,1.311,6.228,2.295,12.128,4.917,17.045,2.295,4.917,6.228,9.178,10.817,10.817s9.506,1.639,13.767,1.311a72.889,72.889,0,0,1,11.8-.328,29.552,29.552,0,0,1,8.85,1.967,15.629,15.629,0,0,1,4.589,2.95c.328.328.656.983.983.983Z" transform="translate(-264.247 -261.7)"/></g><g transform="translate(30.965)"><path class="c" d="M361.119,395.11c0,.328-1.639-2.295-6.228-3.934-2.295-.983-5.245-1.311-8.523-1.639-3.278,0-7.211.328-11.473.656s-9.178.656-14.423-1.311c-4.917-1.639-9.178-6.228-11.8-11.473s-3.934-11.473-5.245-17.373c-1.311-6.228-2.622-12.456-6.228-18.028s-8.523-9.506-13.439-13.439-9.506-7.867-12.784-12.784a42,42,0,0,1-6.228-29.5,41.387,41.387,0,0,1,7.867-19.012,25.99,25.99,0,0,1,3.934-4.261c.983-.983,1.311-1.311,1.639-1.311a7.275,7.275,0,0,1-1.311,1.639c-.983.983-1.967,2.295-3.606,4.261a46.11,46.11,0,0,0-7.211,18.684c-.983,8.523,0,19.34,6.556,28.518,3.278,4.589,7.867,8.523,12.456,12.456s9.834,8.195,13.767,13.767c3.606,5.9,4.917,12.456,6.228,18.356,1.311,6.228,2.295,12.128,4.917,17.045,2.295,4.917,6.228,9.178,10.817,10.817s9.506,1.639,13.767,1.311a72.889,72.889,0,0,1,11.8-.328,29.552,29.552,0,0,1,8.85,1.967,15.629,15.629,0,0,1,4.589,2.95c.328.328.656.983.983.983Z" transform="translate(-264.247 -261.7)"/></g></g><g transform="translate(0 95.715)"><path class="c" d="M239.785,335.47c.656-13.112-5.572-26.551-16.389-34.09a39.677,39.677,0,0,0-37.7-4.917c9.178,20.979,29.829,36.057,52.446,38.679" transform="translate(-185.7 -161.741)"/><path class="c" d="M202.995,310.15c-7.539,8.523-7.211,21.962-1.639,32.123s15.078,17.045,24.584,23.6a52.025,52.025,0,0,0-22.29-58.674" transform="translate(-159.399 -131.177)"/><path class="c" d="M210.628,296.605A45.624,45.624,0,0,0,228,328.073c9.834,7.539,22.617,11.145,34.746,9.178-2.95-12.456-7.867-24.912-17.373-33.107-9.506-8.523-24.584-11.473-35.074-4.589" transform="translate(-129.664 -157.295)"/><path class="c" d="M249.48,306.638c-1.967-11.145-13.112-19.34-24.584-20.651-11.473-.983-22.617,3.934-31.8,10.817a41.318,41.318,0,0,0,26.879,13.767,40.551,40.551,0,0,0,29.173-8.523" transform="translate(-168.844 -179.783)"/><path class="c" d="M200.127,323.906c-10.817,9.178-13.439,25.568-9.178,39.007s15.078,24.256,26.879,32.123c4.589-13.439,7.539-27.862,4.917-41.629-2.295-13.767-10.817-27.207-23.6-33.107" transform="translate(-178.165 -101.337)"/><path class="c" d="M209.7,292.569c5.572-8.523,15.406-13.767,25.568-14.423a33.552,33.552,0,0,1,27.207,11.473c-4.261,9.834-14.751,16.717-25.568,17.045s-21.306-6.228-26.223-15.734" transform="translate(-131.03 -197.51)"/><path class="c" d="M252.069,296.549A42.466,42.466,0,0,1,217,291.96c-10.489-6.228-17.7-17.373-20-29.173,8.523-.656,17.373-1.311,25.9.328s17.045,5.245,22.945,11.473c6.228,6.228,7.867,13.439,6.228,21.962" transform="translate(-159.96 -233.942)"/><path class="c" d="M230.512,307.913A37.364,37.364,0,0,1,217.4,280.707,35.9,35.9,0,0,1,230.184,253.5a73.772,73.772,0,0,1,15.406,32.779,27.964,27.964,0,0,1,0,13.767c-1.311,4.261-4.917,8.195-9.506,8.85" transform="translate(-113.491 -253.5)"/><g class="d" transform="translate(0 132.041)"><path d="M239.785,335.47c.656-13.112-5.572-26.551-16.389-34.09a39.677,39.677,0,0,0-37.7-4.917c9.178,20.979,29.829,36.057,52.446,38.679" transform="translate(-185.7 -293.782)"/></g><g class="d" transform="translate(37.847 176.023)"><path d="M202.995,310.15c-7.539,8.523-7.211,21.962-1.639,32.123s15.078,17.045,24.584,23.6a52.025,52.025,0,0,0-22.29-58.674" transform="translate(-197.246 -307.2)"/></g><g class="d" transform="translate(80.636 138.439)"><path d="M210.628,296.605A45.624,45.624,0,0,0,228,328.073c9.834,7.539,22.617,11.145,34.746,9.178-2.95-12.456-7.867-24.912-17.373-33.107-9.506-8.523-24.584-11.473-35.074-4.589" transform="translate(-210.3 -295.734)"/></g><g class="d" transform="translate(24.256 106.079)"><path d="M249.48,306.638c-1.967-11.145-13.112-19.34-24.584-20.651-11.473-.983-22.617,3.934-31.8,10.817a41.318,41.318,0,0,0,26.879,13.767,40.551,40.551,0,0,0,29.173-8.523" transform="translate(-193.1 -285.862)"/></g><g class="d" transform="translate(10.843 218.963)"><path d="M200.127,323.906c-10.817,9.178-13.439,25.568-9.178,39.007s15.078,24.256,26.879,32.123c4.589-13.439,7.539-27.862,4.917-41.629-2.295-13.767-10.817-27.207-23.6-33.107" transform="translate(-189.008 -320.3)"/></g><g class="d" transform="translate(78.67 80.57)"><path d="M209.7,292.569c5.572-8.523,15.406-13.767,25.568-14.423a33.552,33.552,0,0,1,27.207,11.473c-4.261,9.834-14.751,16.717-25.568,17.045s-21.306-6.228-26.223-15.734" transform="translate(-209.7 -278.08)"/></g><g class="d" transform="translate(37.04 28.145)"><path d="M252.069,296.549A42.466,42.466,0,0,1,217,291.96c-10.489-6.228-17.7-17.373-20-29.173,8.523-.656,17.373-1.311,25.9.328s17.045,5.245,22.945,11.473c6.228,6.228,7.867,13.439,6.228,21.962" transform="translate(-197 -262.086)"/></g><g class="d" transform="translate(103.909)"><path d="M230.512,307.913A37.364,37.364,0,0,1,217.4,280.707,35.9,35.9,0,0,1,230.184,253.5a73.772,73.772,0,0,1,15.406,32.779,27.964,27.964,0,0,1,0,13.767c-1.311,4.261-4.917,8.195-9.506,8.85" transform="translate(-217.4 -253.5)"/></g><g transform="translate(18.684 53.084)"><path class="c" d="M333.005,350.021v-3.606c0-2.295.328-5.572.328-9.834,0-8.523,0-21.306-5.9-35.729a55.413,55.413,0,0,0-14.423-20.323,37.9,37.9,0,0,0-26.223-9.506,33.748,33.748,0,0,0-14.751,3.606,30.18,30.18,0,0,0-11.473,10.817c-5.572,9.506-7.211,21.306-6.556,32.779.328,11.8,1.967,23.273.656,34.746a52.853,52.853,0,0,1-4.261,16.062,34.373,34.373,0,0,1-9.834,12.784,47.536,47.536,0,0,1-13.439,6.884,56.81,56.81,0,0,0-12.784,5.9,48.457,48.457,0,0,0-16.717,18.028,42.757,42.757,0,0,0-4.917,20,40.7,40.7,0,0,0,2.622,15.406c2.95,8.195,6.228,11.8,5.9,12.128l-.656-.656a12.483,12.483,0,0,1-1.639-1.967,52.955,52.955,0,0,1-4.589-8.85,42.038,42.038,0,0,1-2.95-15.734,47.855,47.855,0,0,1,4.589-20.323,51.62,51.62,0,0,1,17.045-19.012c7.867-5.245,18.028-6.556,25.9-12.784s12.128-16.717,13.439-27.534c1.311-11.145-.328-22.617-.983-34.418s.983-23.929,6.884-33.762A31.344,31.344,0,0,1,270.4,273.646a37,37,0,0,1,15.406-3.933,39.338,39.338,0,0,1,27.207,10.161,57.49,57.49,0,0,1,14.423,20.979,75.87,75.87,0,0,1,4.917,20.323,87.017,87.017,0,0,1,.328,15.734c-.328,4.261-.656,7.539-.656,9.834,0,.983-.328,1.967-.328,2.622C333.005,349.693,333.005,350.021,333.005,350.021Z" transform="translate(-191.4 -269.695)"/><g class="d"><path d="M333.005,350.021v-3.606c0-2.295.328-5.572.328-9.834,0-8.523,0-21.306-5.9-35.729a55.413,55.413,0,0,0-14.423-20.323,37.9,37.9,0,0,0-26.223-9.506,33.748,33.748,0,0,0-14.751,3.606,30.18,30.18,0,0,0-11.473,10.817c-5.572,9.506-7.211,21.306-6.556,32.779.328,11.8,1.967,23.273.656,34.746a52.853,52.853,0,0,1-4.261,16.062,34.373,34.373,0,0,1-9.834,12.784,47.536,47.536,0,0,1-13.439,6.884,56.81,56.81,0,0,0-12.784,5.9,48.457,48.457,0,0,0-16.717,18.028,42.757,42.757,0,0,0-4.917,20,40.7,40.7,0,0,0,2.622,15.406c2.95,8.195,6.228,11.8,5.9,12.128l-.656-.656a12.483,12.483,0,0,1-1.639-1.967,52.955,52.955,0,0,1-4.589-8.85,42.038,42.038,0,0,1-2.95-15.734,47.855,47.855,0,0,1,4.589-20.323,51.62,51.62,0,0,1,17.045-19.012c7.867-5.245,18.028-6.556,25.9-12.784s12.128-16.717,13.439-27.534c1.311-11.145-.328-22.617-.983-34.418s.983-23.929,6.884-33.762A31.344,31.344,0,0,1,270.4,273.646a37,37,0,0,1,15.406-3.933,39.338,39.338,0,0,1,27.207,10.161,57.49,57.49,0,0,1,14.423,20.979,75.87,75.87,0,0,1,4.917,20.323,87.017,87.017,0,0,1,.328,15.734c-.328,4.261-.656,7.539-.656,9.834,0,.983-.328,1.967-.328,2.622C333.005,349.693,333.005,350.021,333.005,350.021Z" transform="translate(-191.4 -269.695)"/></g></g></g><g transform="translate(222.818 122.67)"><path class="c" d="M420.272,339.988c-.328,0,2.295-3.933,2.295-11.473a31.274,31.274,0,0,0-2.95-13.439c-2.295-4.917-6.884-9.506-12.784-12.456A25.868,25.868,0,0,0,396.671,300a35.327,35.327,0,0,0-11.473,1.311c-7.867,1.967-15.406,6.556-24.584,8.195a29.315,29.315,0,0,1-14.095-.328c-4.917-1.311-8.85-4.917-11.473-9.178-5.573-8.523-6.884-19.34-13.767-27.207a28.588,28.588,0,0,0-12.456-8.195,31.019,31.019,0,0,0-14.423-1.311c-9.834.656-18.356,5.9-24.256,12.456a57.273,57.273,0,0,0-12.128,22.29,64.961,64.961,0,0,0-2.622,21.962c.656,13.767,2.95,24.584,3.933,32.123.656,3.606.983,6.556,1.639,8.85,0,.983.328,1.639.328,2.295v.656a1.015,1.015,0,0,0-.328-.656,8.341,8.341,0,0,0-.656-2.295c-.328-1.967-.983-4.917-1.967-8.523-1.311-7.539-3.933-18.356-4.589-32.123a67.79,67.79,0,0,1,2.622-22.29c2.294-7.867,5.9-16.062,12.128-22.945a42.86,42.86,0,0,1,11.145-8.85,35.263,35.263,0,0,1,14.095-4.261,34.037,34.037,0,0,1,15.078,1.639,29.463,29.463,0,0,1,13.112,8.523c6.884,8.523,8.523,19.34,13.767,27.207,2.622,3.933,6.228,7.211,10.489,8.523a26.692,26.692,0,0,0,13.439.328c8.85-1.639,16.39-5.9,24.256-8.195a36.3,36.3,0,0,1,11.8-1.311,26.138,26.138,0,0,1,10.489,2.95,28.171,28.171,0,0,1,13.112,13.112,32.625,32.625,0,0,1,2.95,13.767,26.51,26.51,0,0,1-1.639,8.85C420.928,339.333,420.272,339.988,420.272,339.988Z" transform="translate(-253.676 -261.723)"/></g><path class="c" d="M277.083,284.994c8.523,5.245,20.323,5.9,28.19,1.967s13.112-12.456,14.423-22.617a31.982,31.982,0,0,0-26.223-1.311c-7.867,3.278-14.095,10.489-17.373,19.34" transform="translate(20.222 -141.094)"/><path class="c" d="M285.5,278.757c0,9.834,5.572,20.323,13.112,24.912,7.211,4.589,17.373,4.917,26.879.328-.983-9.506-5.572-18.028-12.456-22.945a31.361,31.361,0,0,0-25.568-4.589" transform="translate(41.634 -107.651)"/><path class="c" d="M302.211,293.6c8.85,4.261,20.979,3.606,28.19-1.311,7.211-4.589,11.8-13.767,11.8-23.929a32.874,32.874,0,0,0-26.223,1.311A31.364,31.364,0,0,0,300.9,290.976" transform="translate(76.714 -128.72)"/><path class="c" d="M271.092,295.274c-7.539-6.556-12.456-18.028-11.145-26.551s7.867-16.389,17.373-20.323c6.556,7.211,9.834,16.062,8.85,24.584-.656,8.523-5.572,16.717-13.439,22.29" transform="translate(-17.055 -169.403)"/><g transform="translate(21.962)"><g transform="translate(29.829 49.664)"><path class="c" d="M201.5,278.618a1.015,1.015,0,0,1,.328-.656l.983-1.967a59.106,59.106,0,0,1,4.589-7.211,75.373,75.373,0,0,1,22.617-21.306,59.627,59.627,0,0,1,20.323-7.539c7.867-.983,16.389-.656,24.584,2.622A40.815,40.815,0,0,1,295.9,259.606c4.917,8.523,6.228,18.356,9.178,27.862a47.318,47.318,0,0,0,5.9,13.112,40.031,40.031,0,0,0,9.834,9.834c3.606,2.622,7.539,5.245,11.145,8.195a51.929,51.929,0,0,1,9.178,9.834,65.736,65.736,0,0,1,9.506,22.945,82.494,82.494,0,0,1,1.311,21.634,150.6,150.6,0,0,1-5.572,30.484c-.983,3.606-1.639,6.228-2.295,8.195l-.983,2.95a10.6,10.6,0,0,1,.656-2.95,70.316,70.316,0,0,1,1.967-8.195c1.639-7.211,4.261-17.373,4.917-30.484a92.576,92.576,0,0,0-1.311-20.979c-1.639-7.539-4.261-15.406-9.178-22.29a40.718,40.718,0,0,0-8.85-9.506c-3.606-2.95-7.539-5.245-11.145-8.195-3.933-2.95-7.539-5.9-10.489-10.161a65.474,65.474,0,0,1-6.228-13.767c-2.95-9.506-4.261-19.34-9.178-27.534-4.589-8.195-12.128-13.439-20-16.717a50.554,50.554,0,0,0-23.929-2.622,52.12,52.12,0,0,0-19.667,7.211,74.642,74.642,0,0,0-22.617,20.651c-2.295,2.95-3.606,5.245-4.917,6.884A11.05,11.05,0,0,1,201.5,278.618Z" transform="translate(-201.5 -239.451)"/></g><path class="c" d="M260.845,262.821c-2.622-2.295-3.933-.656-7.211,0-3.606.656-6.556,2.622-9.506,4.589-12.128,9.506-17.373,26.879-12.784,41.629a30.973,30.973,0,0,0,28.518-46.546" transform="translate(-107.439 -139.244)"/><path class="c" d="M238.946,249.891c-1.311-3.278-3.278-2.294-6.556-3.278a19.043,19.043,0,0,0-10.489.328c-15.078,3.606-27.534,16.717-29.5,32.123,9.834,5.245,22.617,4.917,31.8-1.311a31.294,31.294,0,0,0,14.095-28.518" transform="translate(-192.4 -174.827)"/><path class="c" d="M285.58,290.767a37.3,37.3,0,0,0-28.846-12.456A35.753,35.753,0,0,0,229.2,293.39a44.14,44.14,0,0,0,29.173,11.473c10.817,0,21.306-4.917,29.5-11.8" transform="translate(-108.573 -101.305)"/><path class="c" d="M245.921,297.724a37.6,37.6,0,0,0,28.846-12.784c6.884-8.195,10.161-20,7.867-30.484A32.626,32.626,0,0,0,244.61,297.4" transform="translate(-77.765 -157.43)"/><path class="c" d="M232.883,272.972a36.671,36.671,0,0,0,31.468-2.622,37.062,37.062,0,0,0,17.7-26.223,33.806,33.806,0,0,0-33.435-.983c-10.161,5.572-16.717,17.045-16.717,28.845" transform="translate(-102.423 -190.369)"/><path class="c" d="M262.568,245.355a36.671,36.671,0,0,0-31.468,2.622A37.062,37.062,0,0,0,213.4,274.2a33.806,33.806,0,0,0,33.435.983c10.161-5.572,16.717-17.045,16.717-28.846" transform="translate(-144.564 -181.764)"/><path class="c" d="M230.06,277.73a38.335,38.335,0,0,0,22.617-21.962A36.822,36.822,0,0,0,249.4,224.3a34.005,34.005,0,0,0-26.223,20.651,33.046,33.046,0,0,0,5.572,32.779" transform="translate(-127.134 -224.3)"/><path class="c" d="M235.92,274.813A36.459,36.459,0,0,0,206.091,226.3a33.785,33.785,0,0,0-.328,33.435A33.355,33.355,0,0,0,234.937,275.8" transform="translate(-171.674 -219.744)"/></g><g transform="translate(153.078 280.365)"><path class="e" d="M368.76,312.021a9.7,9.7,0,0,0-.983,1.311c-.656.656-1.639,1.967-2.95,3.278a52.347,52.347,0,0,1-13.112,9.178,59.154,59.154,0,0,1-23.273,5.9,41.982,41.982,0,0,1-14.095-1.311,62.572,62.572,0,0,1-14.423-4.917c-9.506-3.933-18.356-8.85-26.551-11.473-8.523-2.622-16.389-3.606-22.945-2.295a31.351,31.351,0,0,0-14.095,6.556,21.5,21.5,0,0,0-3.933,4.261,3.588,3.588,0,0,0,.656-1.311,12.471,12.471,0,0,1,2.95-3.278,28.126,28.126,0,0,1,14.423-7.211c6.884-1.639,15.078-.983,23.929,1.967,8.523,2.622,17.373,7.211,26.879,11.473a78.486,78.486,0,0,0,14.095,4.589A65.311,65.311,0,0,0,329.1,330.05a55.944,55.944,0,0,0,22.617-5.572C363.188,318.905,368.433,311.694,368.76,312.021Z" transform="translate(-232.4 -309.832)"/></g><g transform="translate(150.783 270.086)"><path class="e" d="M371.666,307.692a9.691,9.691,0,0,0-.983,1.311,36.534,36.534,0,0,1-3.278,2.95,73.472,73.472,0,0,1-13.767,8.523,65.617,65.617,0,0,1-23.273,5.573,52,52,0,0,1-14.095-.983,83.339,83.339,0,0,1-14.751-4.261c-9.834-3.606-18.684-7.539-27.207-10.162s-16.717-3.278-23.273-1.967a39.612,39.612,0,0,0-14.751,5.572c-2.95,2.295-4.261,3.934-4.589,3.606a9.7,9.7,0,0,0,.983-1.311,15.322,15.322,0,0,1,3.278-2.95,32.675,32.675,0,0,1,14.751-6.228c6.884-1.311,15.078-.656,23.929,1.639s17.7,6.556,27.534,9.834A120.021,120.021,0,0,0,316.6,323.1a49.655,49.655,0,0,0,13.767.983,65.711,65.711,0,0,0,22.945-5.245C365.766,313.92,371.338,307.364,371.666,307.692Z" transform="translate(-231.7 -306.696)"/></g></g><g transform="translate(331.153 618.884)"><path class="a" d="M383.565,297.7a3.588,3.588,0,0,1-1.311.656,36.769,36.769,0,0,0-4.261,1.639c-1.967.656-4.261,1.639-6.884,2.295s-5.9,1.967-9.178,2.622a180.319,180.319,0,0,1-24.584,4.917,217.743,217.743,0,0,1-30.484,2.295,290.124,290.124,0,0,1-30.484-1.639c-9.178-1.311-17.7-2.622-24.584-4.589a51.768,51.768,0,0,1-9.178-2.622c-2.622-.656-4.917-1.639-6.884-2.295a29.27,29.27,0,0,1-4.261-1.639c-.983-.328-1.639-.656-1.311-.656a5.738,5.738,0,0,1,1.639.328,30.458,30.458,0,0,1,4.261,1.311q2.95.983,6.884,1.967c2.622.656,5.9,1.639,9.178,2.295a193.742,193.742,0,0,0,24.584,3.933,290.124,290.124,0,0,0,30.484,1.639,221.645,221.645,0,0,0,30.484-2.295c9.178-1.311,17.7-2.95,24.256-4.589,3.606-.656,6.556-1.639,9.178-2.295s4.917-1.311,6.884-1.967c1.639-.656,3.278-.983,4.261-1.311Z" transform="translate(-230.074 -297.7)"/></g><g transform="translate(330.583 623.801)"><path class="a" d="M283,307.067a5.736,5.736,0,0,1-.328,1.639c-.328.983-.983,2.622-1.639,4.589-1.311,3.934-3.606,9.834-6.556,16.717a254.941,254.941,0,0,1-11.473,24.256c-2.295,4.589-4.917,9.178-7.539,13.767-1.311,2.295-2.95,4.917-4.261,7.211a14.554,14.554,0,0,1-2.622,3.606,5.708,5.708,0,0,1-4.589,1.639c-3.606-.328-5.572-3.606-6.556-6.228-.656-2.95-.983-5.573-1.639-8.195-.656-5.572-1.639-10.489-2.295-15.734-1.311-9.834-1.967-19.012-2.622-26.551s-.983-13.767-.983-18.028V299.2a5.736,5.736,0,0,0,.328,1.639c0,1.311.328,2.95.328,4.917.328,4.589.983,10.489,1.639,18.028s1.639,16.39,2.95,26.551c.656,4.917,1.311,10.161,2.294,15.734a71,71,0,0,0,1.311,8.195,7.687,7.687,0,0,0,1.639,3.278,4.552,4.552,0,0,0,3.278,1.639c2.295.328,4.261-2.295,5.572-4.589s2.95-4.917,4.261-7.211c2.622-4.589,5.245-9.178,7.539-13.767,4.589-8.85,8.523-17.045,11.473-23.929s5.245-12.456,6.884-16.717a31.951,31.951,0,0,1,1.967-4.589A3.625,3.625,0,0,0,283,307.067Z" transform="translate(-229.9 -299.2)"/></g><g transform="translate(383.685 627.734)"><path class="a" d="M311.658,300.4a5.736,5.736,0,0,1-.328,1.639c-.328,1.311-.656,2.622-1.311,4.589-1.311,4.261-2.95,9.834-4.917,17.045s-4.589,15.734-7.211,24.912A61.163,61.163,0,0,1,295.6,355.8c-.656,2.295-1.311,4.917-2.295,7.539a20.039,20.039,0,0,1-4.261,7.211c-1.967,1.967-4.589,3.934-7.539,4.261a11.146,11.146,0,0,1-8.523-1.967,20.115,20.115,0,0,1-5.572-6.228c-2.294-4.917-4.261-9.834-6.228-14.423-3.606-9.178-6.228-17.7-8.523-24.584q-3.442-10.817-4.917-16.717c-.656-1.967-.983-3.278-1.311-4.589a5.736,5.736,0,0,1-.328-1.639,13.781,13.781,0,0,1,.656,1.639c.328,1.311.983,2.622,1.639,4.589,1.311,4.261,3.278,9.834,5.572,16.717s5.245,15.406,8.85,24.584c1.967,4.589,3.933,9.506,6.228,14.095a17.962,17.962,0,0,0,5.245,5.9c2.295,1.311,4.917,2.295,7.211,1.967a10.552,10.552,0,0,0,6.556-3.933,26.8,26.8,0,0,0,3.934-6.556,50.671,50.671,0,0,0,2.295-7.539c.656-2.622,1.639-4.917,2.295-7.211,2.95-9.178,5.572-17.7,7.539-24.912,2.295-6.884,3.933-12.456,5.245-16.717A35.615,35.615,0,0,1,311,302.694C311.33,300.728,311.658,300.4,311.658,300.4Z" transform="translate(-246.1 -300.4)"/></g><g transform="translate(449.571 618.738)"><path class="a" d="M301.274,297.8s.328-.328.328,0,.328.656.328,1.311V303.7c-.328,3.933-.983,9.834-1.967,17.373-.983,7.211-2.295,16.062-3.934,25.24-.656,4.917-1.311,9.834-2.295,15.078l-.983,7.867c-.328,1.311-.328,2.622-.656,3.933l-.328,1.967a2.976,2.976,0,0,1-.983,2.295c-.983,1.311-2.295,2.622-4.261,2.622a2.76,2.76,0,0,1-2.295-1.311,2.833,2.833,0,0,1-.983-1.967l-1.967-7.867c-1.311-5.245-2.622-10.161-3.606-14.75-2.295-9.178-4.589-17.7-6.228-24.912q-2.458-10.325-3.934-16.717c-.328-1.967-.656-3.278-.983-4.589a5.736,5.736,0,0,1-.328-1.639,13.777,13.777,0,0,1,.656,1.639c.328,1.311.656,2.622,1.311,4.589,1.311,4.261,2.622,9.834,4.589,16.717,1.967,7.211,4.261,15.406,6.556,24.912q1.967,6.883,3.934,14.75l1.967,7.867q.492,1.967,1.967,1.967a3.343,3.343,0,0,0,2.622-1.639C296.029,333.858,303.24,297.146,301.274,297.8Z" transform="translate(-266.2 -297.656)"/></g></g></svg>