<svg xmlns="http://www.w3.org/2000/svg" width="1408.824" height="858.778" viewBox="0 0 1408.824 858.778"><defs><style>.a{fill:#f5f5f5;}.b{fill:#e0e0e0;}.c{fill:#fadcde;}.d{fill:#fff;opacity:0.3;}.e{fill:#e8505b;}.f{fill:#263238;}.g{fill:#455a64;}.h{opacity:0.4;}.i{fill:#ffbe9d;}.j{fill:#eb996e;}</style></defs><g transform="translate(-3.476 -2.761)"><g transform="translate(96.707 456.73)"><path class="a" d="M479.294,502.159a272.964,272.964,0,0,0,22.921-15.281c10.506-7.64,21.011-16.713,27.7-27.7,6.685-11.461,9.551-25.786,4.3-37.725-8.118-18.623-31.039-25.309-50.618-22.444-10.506,1.433-21.011,4.775-31.517,4.3S430.108,397.1,427.721,386.6s4.775-21.011,14.326-26.264c9.551-4.775,20.533-5.73,31.039-6.685a253.357,253.357,0,0,0,85-25.309c13.371-6.685,27.7-18.146,25.786-32.949-1.433-10.506-11.461-17.668-21.489-21.489s-21.011-5.253-30.084-10.983c-8.118-4.775-14.326-15.758-9.073-23.876,2.865-4.3,8.118-6.685,12.893-8.6a302.893,302.893,0,0,0,74.971-43.932c15.281-12.416,30.562-28.651,30.084-48.23s-17.669-36.292-36.769-39.635-39.157,3.82-54.915,15.758c-15.758,11.461-28.174,27.219-41.067,42.022s-25.786,30.084-42.5,40.112c-4.775,2.865-10.983,5.253-15.758,2.388s-5.73-9.551-5.253-14.8c.955-5.73,3.343-10.983,3.343-16.713.478-13.371-13.371-24.354-26.741-23.876s-25.309,10.028-32.472,21.489-10.028,24.831-13.371,38.2c-5.73,24.831-11.461,49.185-17.191,74.016-2.865,13.371-8.118,28.652-21.011,32.472-9.551,2.388-19.1-2.388-26.741-9.073-11.461-9.551-19.579-22.921-23.876-37.247-3.343-10.983-4.775-23.4-13.371-30.084-10.506-8.6-27.219-3.82-36.292,6.208s-10.983,24.354-14.326,37.724c-20.534,74.971-26.264,161.881,22.444,225.392H479.294Z" transform="translate(674.407 -97.828)"/><g transform="translate(941.202 16.581)"><path class="b" d="M220.1,488.573c10.506-30.562-3.343,1.91,18.146-35.337,21.011-37.247,47.753-76.4,76.882-116.039,7.163-10.028,14.8-19.579,21.966-29.607,7.163-9.55,14.326-19.1,21.966-28.174a565.133,565.133,0,0,1,46.32-48.708c15.281-14.8,30.562-28.174,44.887-40.59s27.7-23.876,40.59-33.9a521.575,521.575,0,0,1,63.989-42.022c8.118-4.3,14.326-7.64,18.623-9.55l4.775-2.388c.955-.478,1.432-.955,1.91-.955a5.912,5.912,0,0,1-1.433.955l-4.775,2.388c-4.3,2.388-10.506,5.73-18.146,10.028a502.274,502.274,0,0,0-63.033,42.5c-12.893,10.028-26.264,21.489-40.59,33.9s-29.129,26.264-44.887,41.067a645.4,645.4,0,0,0-45.843,48.708c-7.64,9.073-14.326,18.146-21.489,28.174-7.163,9.55-14.326,19.578-21.966,29.607-29.129,39.635-55.87,78.792-76.882,115.561-21.489,37.247-7.64,4.3-18.146,34.859" transform="translate(-220.1 -101.3)"/></g><g transform="translate(1080.64 45.232)"><path class="b" d="M249.3,257.243v-5.73a131.475,131.475,0,0,1,1.433-16.236c1.433-13.371,3.82-32.472,6.208-53.005,2.865-20.534,4.775-39.157,5.73-53.005.478-6.685.955-12.416.955-16.236a26.274,26.274,0,0,1,.478-5.73,26.273,26.273,0,0,1,.478,5.73c0,3.82,0,9.55-.478,16.236-.478,13.848-2.388,32.472-5.253,53.005s-5.253,38.68-7.163,52.528c-.955,6.208-1.433,11.461-1.91,15.758A31.623,31.623,0,0,1,249.3,257.243Z" transform="translate(-249.3 -107.3)"/></g><g transform="translate(1080.162 192.071)"><path class="b" d="M426.362,149.749a41.227,41.227,0,0,1-7.163-.955c-4.3-.478-10.983-1.433-18.623-2.388-15.758-1.91-38.2-3.82-62.556-5.253-24.354-.955-46.8-.955-62.556-.478-8.118,0-14.326.478-19.1.478H249.2s2.388-.478,7.163-.955c4.3-.478,10.983-.955,19.1-1.433,16.236-.955,38.2-.955,63.033,0a589.38,589.38,0,0,1,62.556,5.73,173.047,173.047,0,0,1,18.623,3.343C423.974,148.794,426.362,149.272,426.362,149.749Z" transform="translate(-249.2 -138.05)"/></g><g transform="translate(928.097 129.754)"><path class="b" d="M251.472,361.375a5.793,5.793,0,0,1-.478-2.388c-.478-1.91-.955-4.3-1.433-6.685-1.433-5.73-2.865-14.326-4.775-25.309-3.343-21.489-7.64-51.1-11.461-83.567-3.82-32.949-7.64-62.556-10.983-84.044-1.433-10.506-2.865-19.1-3.82-25.309a54.791,54.791,0,0,1-.955-6.685c0-1.433-.478-2.388,0-2.388a5.794,5.794,0,0,1,.478,2.388c.478,1.91.955,4.3,1.433,6.685,1.433,5.73,2.865,14.326,4.775,25.309,3.343,21.489,7.64,51.1,11.461,84.044s7.64,62.556,10.983,84.044c1.433,10.506,2.865,19.1,3.82,25.309a54.8,54.8,0,0,1,.955,6.685Z" transform="translate(-217.356 -125)"/></g><g transform="translate(961.736 346.67)"><path class="b" d="M466.983,170.783a8.357,8.357,0,0,0-2.388.478c-1.91,0-4.3.478-7.163.478-6.685.478-15.281,1.433-25.786,1.91-21.966,1.91-52.05,4.775-85.477,7.64-33.427,3.343-63.988,5.73-85.955,7.163-10.983.478-20.056.955-26.264,1.433H224.4a8.356,8.356,0,0,0,2.388-.478c1.91,0,4.3-.478,7.163-.478,6.685-.478,15.281-1.433,25.786-1.91,21.966-1.91,52.05-4.775,85.477-7.64,33.427-3.343,63.511-5.73,85.955-7.163,10.983-.478,20.056-.955,26.264-1.433H464.6C466.028,170.306,466.983,170.306,466.983,170.783Z" transform="translate(-224.4 -170.425)"/></g><g transform="translate(0 134.297)"><path class="a" d="M23,183.487H273.223s-21.966-40.112-86.432-34.382c-61.6,5.73-64.466-19.579-95.983-22.921C59.769,123.319,33.506,147.195,23,183.487Z" transform="translate(-23 -125.951)"/></g></g><g transform="translate(3.476 2.761)"><g transform="translate(427.499 184.99)"><path class="c" d="M254.881,41.5l37.725,33.9c3.343,2.865,3.343,7.64.478,10.983L141.708,254c-2.865,3.343-7.64,3.343-10.983.478L93,221.05Z" transform="translate(-93 -41.5)"/><line class="d" x1="9.551" y1="8.595" transform="translate(27.696 204.381)"/><g transform="translate(135.079 29.534)"><path class="e" d="M121.348,47.757c.478-.478,3.343,1.433,6.685,4.775,3.343,2.865,5.73,5.73,5.253,6.208s-3.343-1.433-6.685-4.775C123.258,51.1,120.871,48.235,121.348,47.757Z" transform="translate(-121.287 -47.685)"/></g><g transform="translate(124.096 41.95)"><path class="e" d="M119.048,50.357c.477-.478,3.343,1.433,6.685,4.775,3.343,2.865,5.73,5.73,5.253,6.208s-3.343-1.433-6.685-4.775S118.571,50.835,119.048,50.357Z" transform="translate(-118.987 -50.285)"/></g><g transform="translate(112.696 53.875)"><path class="e" d="M116.6,52.867c.478-.478,2.865.955,9.551,6.685,6.685,6.208,11.938,11.461,11.461,11.938s-6.208-3.82-12.893-10.028C118.033,55.733,116.6,53.345,116.6,52.867Z" transform="translate(-116.6 -52.782)"/></g><g transform="translate(101.652 66.303)"><path class="e" d="M114.348,55.457c.478-.478,3.343,1.433,6.685,4.775,3.343,2.865,5.73,5.73,5.253,6.208s-3.343-1.433-6.685-4.775C116.258,58.8,113.871,55.935,114.348,55.457Z" transform="translate(-114.287 -55.385)"/></g><g transform="translate(90.669 78.719)"><path class="e" d="M112.048,58.057c.477-.478,3.343,1.433,6.685,4.775,3.343,2.865,5.73,5.73,5.253,6.208s-3.343-1.433-6.685-4.775C113.958,61.4,111.571,58.535,112.048,58.057Z" transform="translate(-111.987 -57.985)"/></g><g transform="translate(79.2 91.122)"><path class="e" d="M109.655,60.667c.478-.478,2.865.955,9.55,6.685,6.685,6.208,11.938,11.461,11.461,11.938s-6.208-3.82-12.893-10.028C111.087,63.533,109.177,61.145,109.655,60.667Z" transform="translate(-109.585 -60.582)"/></g><g transform="translate(68.225 103.55)"><path class="e" d="M107.348,63.257c.478-.478,3.343,1.433,6.685,4.775,3.343,2.865,5.73,5.73,5.253,6.208s-3.343-1.433-6.685-4.775C109.258,66.6,106.871,63.735,107.348,63.257Z" transform="translate(-107.287 -63.185)"/></g><g transform="translate(57.242 115.966)"><path class="e" d="M105.048,65.857c.478-.478,3.343,1.433,6.685,4.775,3.343,2.865,5.73,5.73,5.253,6.208s-3.343-1.433-6.685-4.775C106.958,69.2,104.571,66.335,105.048,65.857Z" transform="translate(-104.987 -65.785)"/></g><g transform="translate(45.773 128.369)"><path class="e" d="M102.655,68.467c.478-.478,2.865.955,9.551,6.685,6.685,6.208,11.938,11.461,11.461,11.938s-6.208-3.82-12.893-10.028S102.177,68.945,102.655,68.467Z" transform="translate(-102.585 -68.382)"/></g><g transform="translate(34.799 140.797)"><path class="e" d="M100.348,71.057c.478-.478,3.343,1.433,6.685,4.775,3.343,2.865,5.73,5.73,5.253,6.208s-3.343-1.433-6.685-4.775C102.258,74.4,99.871,71.535,100.348,71.057Z" transform="translate(-100.287 -70.985)"/></g><g transform="translate(23.815 153.213)"><path class="e" d="M98.048,73.657c.478-.478,3.343,1.433,6.685,4.775,3.343,2.865,5.73,5.73,5.253,6.208s-3.343-1.433-6.685-4.775C99.958,77,97.571,74.135,98.048,73.657Z" transform="translate(-97.987 -73.585)"/></g><g transform="translate(12.346 165.616)"><path class="e" d="M95.655,76.267c.478-.477,2.865.955,9.551,6.685,6.685,6.208,11.938,11.461,11.461,11.938s-6.208-3.82-12.893-10.028S95.177,76.745,95.655,76.267Z" transform="translate(-95.585 -76.182)"/></g><g transform="translate(146.123 17.106)"><path class="e" d="M123.6,45.167c.477-.478,2.865.955,9.55,6.685,6.685,6.208,11.938,11.461,11.461,11.938s-6.208-3.82-12.893-10.028S123.6,45.645,123.6,45.167Z" transform="translate(-123.6 -45.082)"/></g></g><g transform="translate(625.486 27.877)"><path class="c" d="M134.647,594.052c-2.388-28.652,18.623-53.483,42.977-66.854s52.05-18.624,76.882-30.562c61.6-29.129,101.235-98.37,104.1-169.044s-27.7-141.347-75.927-193.4C263.1,113.184,239.225,90.74,238.747,62.088,238.27,32,267.4,8.128,296.528,8.606s55.87,20.056,73.539,44.41,27.219,53.96,36.292,82.612c-6.685-11.938,7.163-26.741,20.056-25.786,13.371,1.433,23.876,12.416,31.994,23.4,34.859,47.275,52.528,107.921,47.753,166.179s-31.994,114.129-74.016,152.331c-47.275,42.977-109.353,63.033-170,82.134-42.022,13.371-84.044,26.741-126.067,39.635" transform="translate(-134.461 -8.599)"/></g><g transform="translate(574.518 12.072)"><path class="c" d="M140.082,7.252c-12.416,5.253-19.579,21.011-14.8,33.9s20.056,20.534,33.427,16.236c12.893-4.3,21.011-19.579,17.668-32.472-3.82-12.893-18.623-21.966-31.517-19.1" transform="translate(-123.788 -5.289)"/></g><g transform="translate(12.518)"><path class="c" d="M46.221,235.98c-25.309-18.623-40.59-50.14-40.112-81.657S23.3,91.768,49.086,74.1c14.8-10.028,31.994-16.236,45.365-28.174,11.461-10.983,19.1-25.786,31.994-34.859C142.681-.395,166.08.083,181.838,12.021S204.282,46.4,197.6,65.026c-6.208,16.713-21.011,29.129-27.219,45.842-6.685,18.146-2.388,38.2-4.775,56.826-2.865,23.4-17.191,44.887-37.247,57.3C107.821,236.935,68.664,244.576,46.221,235.98Z" transform="translate(-6.098 -2.761)"/></g><g transform="translate(421.403 202.18)"><path class="e" d="M250.627,259.986l-45.365,22.921a7.84,7.84,0,0,1-10.506-3.343L92.566,78.527a7.84,7.84,0,0,1,3.343-10.506L141.274,45.1Z" transform="translate(-91.724 -45.1)"/><line class="d" y1="5.73" x2="11.461" transform="translate(5.14 16.713)"/><g transform="translate(126.863 179.728)"><path class="f" d="M132.662,83.037c.478.478-2.865,2.865-6.685,4.775s-7.64,3.343-7.64,2.865c-.478-.477,2.865-2.865,6.685-4.775C128.842,83.514,132.184,82.081,132.662,83.037Z" transform="translate(-118.29 -82.737)"/></g><g transform="translate(119.223 164.925)"><path class="f" d="M131.062,79.937c.478.478-2.865,2.865-6.685,4.775s-7.64,3.343-7.64,2.865c-.478-.478,2.865-2.865,6.685-4.775C127.242,80.414,130.584,78.981,131.062,79.937Z" transform="translate(-116.69 -79.637)"/></g><g transform="translate(100.621 149.828)"><path class="f" d="M138.128,76.591c.478.478-1.91,2.388-10.028,6.208-8.118,4.3-14.8,6.685-15.281,6.208s6.208-4.3,13.848-8.6C135.263,77.069,138.128,76.114,138.128,76.591Z" transform="translate(-112.795 -76.476)"/></g><g transform="translate(103.942 135.047)"><path class="f" d="M127.862,73.473c.478.477-2.865,2.865-6.685,4.775s-7.64,3.343-7.64,2.865c-.478-.478,2.865-2.865,6.685-4.775S127.862,73,127.862,73.473Z" transform="translate(-113.49 -73.381)"/></g><g transform="translate(96.779 120.217)"><path class="f" d="M126.362,70.394c.478.478-2.865,2.865-6.685,4.775s-7.64,3.343-7.64,2.865c-.478-.477,2.865-2.865,6.685-4.775C122.542,70.872,125.884,69.917,126.362,70.394Z" transform="translate(-111.99 -70.275)"/></g><g transform="translate(78.177 105.38)"><path class="f" d="M133.428,67.321c.478.478-1.91,2.388-10.028,6.208-8.118,4.3-14.8,6.685-15.281,6.208s6.208-4.3,13.848-8.6C130.563,67.321,132.95,66.843,133.428,67.321Z" transform="translate(-108.095 -67.168)"/></g><g transform="translate(81.499 90.61)"><path class="f" d="M123.162,64.194c.478.478-2.865,2.865-6.685,4.775s-7.64,3.343-7.64,2.865c-.477-.478,2.865-2.865,6.685-4.775C119.342,64.672,123.162,63.717,123.162,64.194Z" transform="translate(-108.79 -64.075)"/></g><g transform="translate(73.858 75.807)"><path class="f" d="M121.562,61.094c.478.477-2.865,2.865-6.685,4.775s-7.64,3.343-7.64,2.865c-.477-.478,2.865-2.865,6.685-4.775C117.742,61.572,121.562,60.617,121.562,61.094Z" transform="translate(-107.19 -60.975)"/></g><g transform="translate(55.734 60.97)"><path class="f" d="M128.728,58.021c.477.478-1.91,2.388-10.028,6.208-8.118,4.3-14.8,6.685-15.281,6.208s6.208-4.3,13.848-8.6C125.863,58.021,128.25,57.543,128.728,58.021Z" transform="translate(-103.395 -57.868)"/></g><g transform="translate(59.055 46.021)"><path class="f" d="M118.462,55.037c.477.478-2.865,2.865-6.685,4.775s-7.64,3.343-7.64,2.865c-.478-.478,2.865-2.865,6.685-4.775C114.642,55.514,117.984,54.081,118.462,55.037Z" transform="translate(-104.09 -54.737)"/></g><g transform="translate(51.414 31.218)"><path class="f" d="M116.862,51.936c.478.478-2.865,2.865-6.685,4.775s-7.64,3.343-7.64,2.865c-.478-.478,2.865-2.865,6.685-4.775C113.042,52.414,116.862,50.981,116.862,51.936Z" transform="translate(-102.49 -51.637)"/></g><g transform="translate(32.812 16.121)"><path class="f" d="M123.928,48.591c.478.478-1.91,2.388-10.028,6.208-8.118,4.3-14.8,6.685-15.281,6.208s6.208-4.3,13.848-8.6C121.063,49.069,123.928,48.114,123.928,48.591Z" transform="translate(-98.595 -48.476)"/></g><g transform="translate(123.065 194.486)"><path class="f" d="M142.828,86.172c.478.477-1.91,2.388-10.028,6.208-8.118,4.3-14.8,6.685-15.281,6.208s6.208-4.3,13.848-8.6C140.44,86.172,142.828,85.217,142.828,86.172Z" transform="translate(-117.495 -85.828)"/></g></g><g transform="translate(0 4.008)"><path class="g" d="M148.28,7.7,82.859,182s-10.983,23.876-15.758,27.7-12.893,3.343-20.056,2.388h0a25.67,25.67,0,0,0-28.652,11.461L7.41,241.21a26.372,26.372,0,1,0,44.887,27.7L63.28,251.238A24.347,24.347,0,0,0,67.1,237.39c1.433-9.551,8.6-22.444,13.848-30.084s25.786-24.354,30.084-27.7,6.685-7.64,12.416-21.489,30.084-82.134,32.949-90.73C158.785,59.273,159.263,22.5,148.28,7.7ZM49.432,223.541a18.017,18.017,0,0,1,5.73,25.309l-9.073,14.326a18.017,18.017,0,0,1-25.309,5.73A18.017,18.017,0,0,1,15.05,243.6l9.073-14.326C29.376,220.676,40.837,218.289,49.432,223.541Z" transform="translate(-3.476 11.879)"/><path class="e" d="M97.094,313.036l-6.208-57.781a25.7,25.7,0,0,0-13.848-20.534h0c-8.6-7.163-13.371-5.73-14.8-20.534S39.313,3.6,39.313,3.6,12.572,26.521,16.87,57.083,34.061,179.807,35.016,187.925s12.893,12.893,15.758,24.354,3.343,20.056-.955,23.876h0a25.786,25.786,0,0,0-10.506,24.354l6.208,57.781a26.4,26.4,0,0,0,29.129,23.4C89.454,340.255,98.527,327.362,97.094,313.036Zm-7.64-.478a18.993,18.993,0,0,1-16.236,20.534h-.955a18.993,18.993,0,0,1-20.534-16.236l-6.208-55.393A18.992,18.992,0,0,1,61.757,240.93h.955a18.993,18.993,0,0,1,20.534,16.236Z" transform="translate(45.322 -3.6)"/><circle class="g" cx="5.73" cy="5.73" r="5.73" transform="translate(87.978 175.729)"/></g><path class="c" d="M217.55,369.821a86.556,86.556,0,0,1-10.506-32.472c-2.865-23.876,3.343-53.005-15.281-67.809-7.163-5.73-16.236-7.64-22.921-13.848-29.607-25.786,17.668-80.7-6.685-111.263-11.461-14.326-34.859-14.8-50.14-4.3S88.14,168.305,83.842,185.974c-16.713,63.988,7.163,133.23,50.14,183.847H217.55Z" transform="translate(279.668 488.479)"/></g><g transform="translate(202.812 257.821)"><g transform="translate(298.831 554.055)"><path class="e" d="M228.618,221.385,189.939,172.2l-30.562,1.433c-20.534.955-39.157,12.416-47.275,29.607h0c-2.865,5.73,1.433,17.668-4.3,17.668C106.849,221.385,228.618,221.385,228.618,221.385Z" transform="translate(-107.799 -172.2)"/><path class="h" d="M228.614,221.385,189.934,172.2l-30.562,1.433c-20.534.955-39.157,12.416-47.275,29.607h0a40.081,40.081,0,0,0-4.3,17.668Z" transform="translate(-107.794 -172.2)"/></g><path class="i" d="M115.6,210.437,130.881,175.1l26.264,35.337H115.6" transform="translate(220.483 392.803)"/><path class="f" d="M468.388,113.6C458.36,82.086,427.8,58.209,394.849,56.3s-66.376,18.146-79.747,48.23c-8.6,19.579-10.506,43.455-26.264,57.3-10.983,10.028-28.174,13.848-36.292,26.741-9.073,14.8-2.388,35.337-10.506,51.1C236.788,249.7,226.283,255.9,215.3,259.725s-22.444,5.73-32.472,10.506c-29.129,12.893-45.842,46.32-42.977,77.837s23.4,60.168,50.618,76.882S250.159,446.915,282.153,445c20.534-1.433,41.545-6.208,58.736-17.668s30.084-30.562,30.084-51.573" transform="translate(310.839 -56.174)"/><path class="i" d="M292.961,259.266,182.653,127.947h0a103.906,103.906,0,0,0-5.253-12.893c-5.73-10.028-14.8-19.1-25.786-21.489-7.163-1.433-14.8-.955-20.534-5.253-2.388-1.91-4.3-4.775-6.685-6.685s-6.685-2.388-8.6.478c-.955,1.91-.477,4.3.478,6.685a69.409,69.409,0,0,0,19.1,24.831c-10.506,3.343-25.309,8.118-25.309,8.118S86.67,96.43,74.732,96.43s9.551,22.444,9.551,22.444-19.1-17.668-24.831-12.893,9.073,18.146,9.073,18.146c-4.775-2.388-10.028-5.253-15.281-4.3s-10.028,7.163-7.163,11.938c.955,1.91,2.865,2.865,4.775,3.82,9.55,5.253,19.579,10.983,29.129,16.236,4.775,2.865,10.028,5.73,15.758,5.73,14.8.478,26.264-8.6,41.067-8.118,0,0,83.089,174.774,91.685,183.847s191.01,21.489,191.01,21.489l105.533-91.207Z" transform="translate(-45.22 34.06)"/><path class="e" d="M306.618,300.081l64.943-3.343-7.64,12.893-4.775,15.758s-12.893,46.8-19.1,63.988c-16.713,45.365-33.427,57.3-41.067,60.646l-3.82.955h-.477c-51.573,15.281-55.393,39.157-45.842,59.691h19.1c0-9.073,2.865-17.668,11.938-22.921,17.668-10.028,36.292,2.388,55.393,22.921h233.51c5.253-10.506,10.506-22.444,16.713-34.382h0c22.921-48.23,48.23-100.758,48.23-100.758l54.438,135.14H796.081L709.649,278.592c-4.3-12.416-11.938-17.191-19.579-22.444l-42.977-53.96L541.56,167.329s-55.87-15.281-95.983-1.433a20.074,20.074,0,0,1-2.388.955l-223,14.8L139.484,95.7c-12.416,17.191-50.618,37.725-72.584,42.5,0,0,61.123,136.572,74.016,156.628Z" transform="translate(36.629 93.048)"/><g transform="translate(495.122 309.927)"><g transform="translate(0 183.34)"><path class="f" d="M251.641,184.2s-1.433.955-3.82,2.388a106.188,106.188,0,0,1-11.938,5.253,92.593,92.593,0,0,1-83.567-11.461,112.14,112.14,0,0,1-9.55-8.118,24.68,24.68,0,0,1-2.865-3.343c.478-.478,4.775,4.775,13.848,10.506a102.748,102.748,0,0,0,39.635,14.8c16.713,2.388,32.472,0,42.5-3.343C245.433,187.547,251.641,183.727,251.641,184.2Z" transform="translate(-139.9 -168.894)"/></g><g transform="translate(212.021)"><path class="f" d="M227.755,130.5c0,.478-4.775,2.865-11.938,8.118a73.021,73.021,0,0,0-10.983,10.506,90.242,90.242,0,0,0-10.506,14.8,93.759,93.759,0,0,0-6.685,16.713,53.873,53.873,0,0,0-1.91,14.326c-.478,8.118.955,13.371.478,13.371,0,0-.478-1.433-.955-3.343-.478-.955-.478-2.388-.478-4.3,0-1.433-.478-3.343-.478-5.73a59.86,59.86,0,0,1,1.91-14.8,70.716,70.716,0,0,1,6.685-17.191,96.561,96.561,0,0,1,10.983-15.281,68.612,68.612,0,0,1,11.461-10.028,32.115,32.115,0,0,1,5.253-3.343c1.433-.955,2.865-1.433,4.3-2.388A13.516,13.516,0,0,1,227.755,130.5Z" transform="translate(-184.3 -130.5)"/></g></g><path class="f" d="M259.274,101.2c-5.253,32.472-4.3,61.123,2.388,78.314,6.208,17.191,12.416,36.292,4.775,52.528-3.343,6.208-8.6,12.416-8.118,19.579,0,9.073,9.073,15.281,14.8,22.921,8.118,10.983,8.118,26.741,1.91,39.157s-17.668,21.011-30.562,25.786c-13.371,4.775-30.562,4.775-39.157-6.685-5.253-7.163-5.73-16.236-5.73-24.831-.955-44.41,0-89.3,2.865-133.707" transform="translate(536.189 113.812)"/><path class="f" d="M221.036,108.439c0-10.506,8.6-20.056,19.1-21.966s21.489,4.3,26.264,13.848,2.865,21.489-4.3,29.607c-8.118,9.551-23.4,11.938-34.382,5.73S211.008,115.6,214.35,103.664" transform="translate(589.708 56.91)"/><g transform="translate(598.791 41.615)"><path class="i" d="M376.359,122.247l-6.685,14.8L263.186,326.628c-11.461,25.786,1.433,5.253-25.786-7.163l-3.82-6.685c-27.7-12.416-60.646,10.983-49.663-15.281,11.461-27.7,10.028-41.545,10.028-41.545s-32.949-21.011-20.534-70.2c6.208-24.354,23.4-61.6,38.68-91.685,13.371-26.741,46.8-37.247,73.061-22.444Z" transform="translate(-170.614 -64.888)"/><g transform="translate(41.953 49.769)"><g transform="translate(2.79 9.81)"><path class="f" d="M180.537,80.875c-1.433,2.865,0,6.685,3.343,8.6,3.343,1.433,7.163.477,8.6-2.865,1.433-2.865,0-6.685-3.343-8.6C185.79,76.577,181.97,77.532,180.537,80.875Z" transform="translate(-179.984 -77.365)"/></g><path class="f" d="M179.4,77.648c.478.955,6.208-.478,12.893,2.388,6.208,2.865,9.55,8.118,10.506,7.64.478,0,.478-1.91-.955-4.3a16.65,16.65,0,0,0-8.118-6.685c-3.82-1.91-8.118-1.433-10.506-.955C180.355,76.215,179.4,77.17,179.4,77.648Z" transform="translate(-179.4 -75.311)"/></g><g transform="translate(104.032 77.942)"><g transform="translate(2.79 9.333)"><path class="f" d="M193.537,86.675c-1.433,2.865,0,6.685,3.343,8.6,3.343,1.433,7.163.478,8.6-2.865,1.433-2.865,0-6.685-3.343-8.6C198.79,82.377,194.97,83.332,193.537,86.675Z" transform="translate(-192.984 -83.165)"/></g><path class="f" d="M192.4,83.548c.478.955,6.208-.477,12.893,2.388,6.208,2.865,9.55,8.118,10.506,7.64.478,0,.478-1.91-.955-4.3a16.65,16.65,0,0,0-8.118-6.685c-3.82-1.91-8.118-1.433-10.506-.955C193.355,82.115,192.4,83.07,192.4,83.548Z" transform="translate(-192.4 -81.211)"/></g><g transform="translate(46.251 65.94)"><path class="f" d="M194.626,130.284c0-.478-3.343-2.865-9.551-6.208-1.433-.955-2.865-1.91-2.865-2.865,0-1.433,1.433-2.865,3.343-4.3,3.343-3.343,6.685-6.685,10.028-10.506,14.326-14.8,25.309-27.219,24.831-27.7S208,89.694,193.671,104.5c-3.343,3.82-6.685,7.163-10.028,10.506-1.433,1.433-3.343,3.343-3.343,6.208a5.458,5.458,0,0,0,1.433,3.343c.955.955,1.91.955,2.388,1.433C190.806,128.852,194.626,130.762,194.626,130.284Z" transform="translate(-180.3 -78.697)"/></g><g transform="translate(19.987 191.066)"><path class="j" d="M179.1,104.9s30.084,15.281,68.764,10.028c0,0-28.651,25.309-73.061.955Z" transform="translate(-174.8 -104.9)"/></g><g transform="translate(55.324 132.808)"><path class="j" d="M183.633,94.133a13.152,13.152,0,0,1,11.938,0,10.944,10.944,0,0,1,5.73,7.163c.478,2.865-.478,6.208-2.865,7.64-2.865,1.91-6.685.478-9.073-1.433-2.865-2.388-4.3-5.253-6.208-8.118a6.786,6.786,0,0,1-.955-2.865,2.626,2.626,0,0,1,1.433-2.388" transform="translate(-182.2 -92.7)"/></g><g transform="translate(50.459 129.918)"><path class="f" d="M208.49,92.119c-.955-.478-3.82,6.208-11.938,8.6s-15.281-1.433-15.281-.478c-.478.478.955,1.91,4.3,3.343a18.661,18.661,0,0,0,12.893.955,15.991,15.991,0,0,0,9.55-7.64C208.967,94.507,208.967,92.119,208.49,92.119Z" transform="translate(-181.181 -92.095)"/></g><g transform="translate(113.105 53.061)"><path class="f" d="M194.3,77.433c0,1.91,6.685,3.82,13.848,8.118,7.163,3.82,12.416,8.6,13.848,7.64.955-.478.478-2.865-1.433-5.253a31.68,31.68,0,0,0-9.073-8.6A25.257,25.257,0,0,0,199.553,76C196.21,76,194.3,76.478,194.3,77.433Z" transform="translate(-194.3 -76)"/></g><g transform="translate(52.369 31.764)"><path class="f" d="M181.672,74.691c.478,1.91,5.73,2.388,10.983,4.3s9.551,5.253,10.983,4.3c.955-.478.478-2.388-.478-4.3a16.9,16.9,0,0,0-7.64-6.208,18.889,18.889,0,0,0-10.028-.955C182.627,72.3,181.194,73.736,181.672,74.691Z" transform="translate(-181.581 -71.54)"/></g></g><g transform="translate(621.621 55.477)"><path class="g" d="M175.418,70.7c-.478.478,6.685,3.82,15.758,2.865s15.281-5.73,14.8-5.73c-.478-.478-6.685,3.343-15.281,4.3C182.581,72.608,175.418,69.743,175.418,70.7Z" transform="translate(-175.395 -67.791)"/></g><g transform="translate(617.305 75.022)"><path class="g" d="M174.532,71.96c-.478.478,3.343,3.343,8.6,4.3s9.55-.478,9.55-.955-4.3,0-9.073-.955S175.009,71.482,174.532,71.96Z" transform="translate(-174.492 -71.884)"/></g><g transform="translate(804.495 153.889)"><path class="e" d="M213.732,118.962c.478.478,5.253-5.73,8.118-14.326,3.343-8.6,3.343-16.236,2.865-16.236s-1.433,7.163-4.3,15.758C217.075,112.276,213.255,118.484,213.732,118.962Z" transform="translate(-213.691 -88.4)"/></g><g transform="translate(394.154 236.136)"><g transform="translate(0 106.853)"><path class="f" d="M130.336,223.505a11.828,11.828,0,0,1-1.433-4.3,31.789,31.789,0,0,1-.955-12.416c.478-10.506,6.208-24.354,16.236-36.769s20.534-21.966,27.219-29.607c3.343-3.82,6.208-7.163,7.64-9.073,1.91-2.388,2.865-3.343,2.865-3.343a14.323,14.323,0,0,1-2.388,3.82,82.009,82.009,0,0,1-7.64,9.551c-6.685,8.118-17.191,17.668-26.741,29.607s-15.281,25.309-16.236,35.337C128.426,217.3,130.813,223.505,130.336,223.505Z" transform="translate(-127.761 -128)"/></g><path class="e" d="M163.4,147.056c4.775-5.73,5.253-13.848,6.685-21.011s4.3-15.281,10.506-18.623c6.685-3.343,14.326-1.433,21.489.955,29.129,9.55,57.781,18.624,86.91,28.174,5.73,1.91,12.416,4.775,14.8,10.506,1.433,3.82,1.433,8.6-.955,11.461-10.506,14.8-14.326,29.129-11.938,42.977" transform="translate(6.786 -105.624)"/><g transform="translate(174.962 37.612)"><path class="f" d="M278.529,151.7a40.163,40.163,0,0,1-4.775,1.91,135.8,135.8,0,0,1-13.848,2.865c-11.938,1.91-28.651,1.91-46.8-2.865a99.606,99.606,0,0,1-23.876-9.551,61.41,61.41,0,0,1-16.713-12.893c-3.82-4.775-6.208-9.073-7.163-12.416a14.762,14.762,0,0,1-.955-3.82V113.5c.478,0,1.433,7.64,9.551,16.236,3.82,4.3,9.551,8.6,16.236,12.416s14.8,6.685,23.876,9.073a122.349,122.349,0,0,0,45.842,3.343A117.491,117.491,0,0,0,278.529,151.7Z" transform="translate(-164.4 -113.5)"/></g><g transform="translate(222.057 15.434)"><path class="f" d="M174.442,171.146c-.478,0,0-3.82,1.433-10.028.955-6.208,2.388-14.8,4.3-24.354.955-4.775,1.91-9.073,2.865-13.371s1.91-8.118,4.3-10.506,4.775-3.82,6.685-3.82a4.445,4.445,0,0,1,2.865,0,13.362,13.362,0,0,0-2.865.478,13.666,13.666,0,0,0-5.73,4.3c-1.91,2.388-2.865,6.208-3.82,10.028-.955,4.3-1.433,8.6-2.388,13.371-1.91,9.551-3.82,18.146-4.775,24.354C175.874,167.326,174.919,171.146,174.442,171.146Z" transform="translate(-174.263 -108.856)"/></g><g transform="translate(271.772 25.196)"><path class="f" d="M184.8,166.293c-.478,0,.478-3.343,1.433-8.6s2.388-11.938,4.3-20.056c1.91-7.64,3.82-14.8,4.775-19.579a7.4,7.4,0,0,0-.955-5.73l-1.433-1.433a2.958,2.958,0,0,1,1.91.955c.955.955,1.91,3.343,1.91,6.208-.955,5.253-2.388,12.416-4.3,20.056s-3.82,14.8-4.775,19.579Z" transform="translate(-184.673 -110.9)"/></g><g transform="translate(182.952 1.849)"><path class="f" d="M191.509,106.437c0,.478-3.343,0-7.64,2.865a18.164,18.164,0,0,0-5.73,6.208c-1.91,2.865-2.865,6.208-3.82,10.028-1.91,7.64-3.82,14.326-5.253,19.1s-2.388,8.118-2.865,7.64c-.478,0,.478-3.343,1.433-8.118.955-5.253,2.865-11.938,4.775-19.579a34.672,34.672,0,0,1,4.3-10.506,22.253,22.253,0,0,1,6.685-6.685A10.333,10.333,0,0,1,191.509,106.437Z" transform="translate(-166.073 -106.011)"/></g></g><g transform="translate(601.454 55.794)"><path class="f" d="M323.636,70.447c-19.579,10.506-17.668,39.157-10.028,60.168,7.163,21.011,16.713,45.842,3.343,63.988-15.281,21.011-53.483,21.011-59.213,46.32-2.388,9.073.955,19.579-2.865,28.174-7.163,15.281-30.562,13.848-42.977,25.309-17.191,16.236-4.3,45.842-13.848,66.854-5.253,11.938-17.191,20.056-23.4,31.994-11.938,24.354,8.6,55.87,35.337,60.646s53.96-10.983,70.2-32.472,23.876-59.213,31.517-85.477L348.468,364.6c10.983-3.82,4.3-16.713,7.163-27.7,7.64-28.174.955-58.736,4.3-87.865,2.865-25.309,13.848-49.185,21.489-74.016,7.64-24.354,11.461-52.05.955-75.449s-40.112-39.635-63.033-27.7" transform="translate(-171.172 -67.858)"/></g><g transform="translate(745.8 65.069)"><path class="g" d="M268.254,180.586c0-.478-7.64-1.433-18.623-7.64-10.506-6.208-23.4-19.1-31.517-36.292s-11.461-34.382-13.371-46.8c-.955-5.73-1.91-10.983-2.388-14.8-.478-3.343-.955-5.253-.955-5.253a41.339,41.339,0,0,0,.478,5.253c.478,3.343.955,8.6,1.91,14.8,1.91,12.416,4.775,29.607,13.371,47.275,8.118,17.668,21.489,30.562,32.472,36.292a56.733,56.733,0,0,0,13.848,5.73,21.666,21.666,0,0,1,3.82.955A1.479,1.479,0,0,0,268.254,180.586Z" transform="translate(-201.4 -69.8)"/></g><g transform="translate(755.828 157.18)"><path class="g" d="M203.5,89.141a53.012,53.012,0,0,0,4.3,7.64,68.351,68.351,0,0,0,15.758,14.8,63.24,63.24,0,0,0,20.056,8.6c5.253,1.433,9.073,1.433,9.073.955s-3.343-.955-8.6-2.388a72.037,72.037,0,0,1-19.1-8.6A78.934,78.934,0,0,1,209.23,96.3C205.41,91.528,203.5,88.663,203.5,89.141Z" transform="translate(-203.5 -89.089)"/></g></g><g transform="translate(42.269 191.093)"><g transform="translate(0 276.965)"><path class="e" d="M31.179,100.2l2.865,4.775a36.962,36.962,0,0,0,13.371,12.416l4.775,2.388-4.775,2.865A36.961,36.961,0,0,0,35,136.014l-2.388,4.775-2.865-4.775A36.962,36.962,0,0,0,16.375,123.6L11.6,121.211l4.775-2.865a36.961,36.961,0,0,0,12.416-13.371Z" transform="translate(-11.6 -100.2)"/></g><g transform="translate(1144.628 184.802)"><path class="e" d="M270.879,80.9l2.865,4.775a36.961,36.961,0,0,0,13.371,12.416l4.775,2.388-4.775,2.865A36.962,36.962,0,0,0,274.7,116.714l-2.388,4.775-2.865-4.775A36.962,36.962,0,0,0,256.075,104.3l-4.775-2.388,4.775-2.865a36.961,36.961,0,0,0,12.416-13.371Z" transform="translate(-251.3 -80.9)"/></g><g transform="translate(1129.825)"><path class="e" d="M248.678,42.2l1.433.478c1.433.478,3.343.955,4.775.478l1.433-.478-.478,1.433c-.478,1.433-.955,3.343-.478,4.775l.478,1.433-1.433-.478c-1.433-.478-3.343-.955-4.775-.478l-1.433.478.478-1.433c.478-1.433.955-3.343.478-4.775Z" transform="translate(-248.2 -42.2)"/></g><g transform="translate(72.584 148.033)"><path class="e" d="M27.278,73.2l1.433.478c1.433.478,3.343.955,4.775.478l1.433-.478L34.44,75.11c-.478,1.433-.955,3.343-.478,4.775l.478,1.433-1.433-.478c-1.433-.478-3.343-.955-4.775-.478L26.8,80.84l.478-1.433c.478-1.433.955-3.343.478-4.775Z" transform="translate(-26.8 -73.2)"/></g></g></g></svg>