<?xml version="1.0" standalone="no"?>
<!DOCTYPE svg PUBLIC "-//W3C//DTD SVG 20010904//EN"
 "http://www.w3.org/TR/2001/REC-SVG-20010904/DTD/svg10.dtd">
<svg version="1.0" xmlns="http://www.w3.org/2000/svg"
 width="1280.000000pt" height="640.000000pt" viewBox="0 0 1280.000000 640.000000"
 preserveAspectRatio="xMidYMid meet">
<metadata>
Created by potrace 1.15, written by Peter Selinger 2001-2017
</metadata>
<g transform="translate(0.000000,640.000000) scale(0.100000,-0.100000)"
fill="#000000" stroke="none">
<path d="M6200 4814 c-213 -26 -290 -38 -380 -60 -398 -98 -698 -298 -899
-598 -39 -59 -71 -111 -71 -116 0 -4 -24 -13 -52 -20 -291 -68 -684 -269 -927
-474 -47 -40 -93 -75 -101 -78 -19 -7 -322 -267 -370 -316 -52 -55 -247 -215
-331 -274 -41 -28 -108 -75 -149 -103 -95 -66 -203 -121 -257 -130 -77 -12
-142 29 -367 234 -283 259 -447 347 -734 391 -481 74 -910 35 -1257 -113 -148
-64 -177 -83 -231 -151 -34 -42 -44 -66 -59 -135 -22 -105 -16 -172 23 -254
78 -164 229 -223 392 -153 340 147 627 183 1014 130 86 -12 124 -23 180 -51
73 -37 265 -187 314 -245 85 -101 270 -233 412 -294 252 -106 556 -51 884 160
93 60 308 231 536 426 289 247 496 408 680 530 115 75 230 135 239 123 4 -4
15 -62 24 -128 24 -173 77 -356 154 -529 79 -179 89 -195 206 -350 130 -169
175 -216 313 -320 175 -131 319 -198 503 -236 344 -69 788 -79 1129 -24 542
86 848 245 1050 543 151 224 155 453 12 742 -96 195 -206 304 -505 502 -236
156 -329 207 -532 288 -358 144 -761 252 -1138 305 l-50 7 30 13 c17 7 46 13
66 14 19 0 39 4 45 8 32 29 391 57 619 48 267 -10 490 -48 720 -122 235 -76
389 -152 742 -366 345 -209 491 -268 658 -268 107 0 347 29 545 65 74 14 256
41 404 60 233 31 277 34 329 24 227 -41 575 -260 762 -479 114 -133 180 -240
400 -645 161 -297 300 -481 439 -579 187 -133 461 -211 781 -223 168 -6 202 2
283 66 152 123 163 406 20 538 -81 74 -115 85 -273 94 -280 15 -471 83 -537
192 -13 21 -39 64 -59 96 -20 32 -78 134 -129 227 -215 394 -267 478 -371 605
-154 190 -430 433 -629 557 -198 123 -483 226 -677 247 -68 8 -340 -11 -388
-26 -16 -5 -94 -16 -175 -25 -80 -8 -194 -23 -255 -34 -150 -26 -426 -60 -485
-60 -53 0 -153 45 -220 99 -33 26 -107 73 -180 112 -68 37 -256 154 -265 165
-22 26 -441 208 -562 243 -117 35 -406 90 -557 106 -134 15 -662 28 -736 19z
m-529 -1434 c441 -43 982 -202 1402 -411 188 -94 359 -228 434 -341 l25 -37
-30 -38 c-61 -77 -227 -144 -522 -209 -119 -26 -138 -28 -395 -28 -231 -1
-294 3 -435 23 -91 12 -173 24 -183 24 -10 1 -21 7 -25 13 -4 7 -36 25 -72 41
-175 79 -313 229 -418 452 -66 141 -89 240 -109 459 l-6 62 116 0 c63 0 161
-5 218 -10z"/>
</g>
</svg>
