<svg xmlns="http://www.w3.org/2000/svg" width="309.278" height="355.5" viewBox="0 0 309.278 355.5"><defs><style>.a{fill:#1a2e35;}.b{fill:#375a64;}.c{fill:#ff4f5b;}.d{opacity:0.4;}.e{fill:#fafafa;}</style></defs><g transform="translate(-185.7 -274.278)"><g transform="translate(289.035 288.798)"><path class="a" d="M345.287,423.147a10.17,10.17,0,0,1-.484-1.21c-.242-.726-.484-1.936-.968-3.388-.726-2.9-1.936-7.26-3.63-12.584-3.146-11.132-7.5-27.1-12.826-46.706-10.648-39.446-25.652-93.9-41.866-154.155h1.21a.889.889,0,0,1-.242.726c-14.762,60.742-28.8,115.677-39.688,155.365-5.324,19.844-9.922,35.816-13.068,46.706-1.694,5.566-2.9,9.68-3.872,12.584-.484,1.452-.726,2.42-.968,3.388a10.185,10.185,0,0,1-.484,1.21,4.235,4.235,0,0,1,.242-1.21c.242-.726.484-1.936.968-3.388.726-2.9,1.936-7.26,3.63-12.826,3.146-11.132,7.5-27.1,12.826-46.948,10.648-39.688,24.684-94.381,39.2-155.365a.889.889,0,0,1,.242-.726L286,202.2l.726,2.42c16.214,60.258,30.976,114.709,41.624,154.155,5.324,19.6,9.438,35.574,12.584,46.706,1.452,5.566,2.662,9.68,3.388,12.826a29.241,29.241,0,0,1,.726,3.388A11.006,11.006,0,0,1,345.287,423.147Z" transform="translate(-228.4 -202.2)"/></g><g transform="translate(185.7 342.28)"><path class="b" d="M229.1,293l14.036,73.568,89.783-1.21,12.342-71.148Z" transform="translate(-124.071 -126.745)"/><g transform="translate(167.223 90.509)"><g transform="translate(0 24.812)"><path class="c" d="M256.978,296.127c6.292,3.872,13.552,4.6,19.36,1.694s9.68-9.2,10.648-16.7a23.612,23.612,0,0,0-19.36-.968c-5.808,2.42-10.406,7.744-12.826,14.278" transform="translate(-254.8 -262.617)"/><path class="c" d="M278.878,304.527c6.292,3.872,13.552,4.6,19.36,1.694s9.68-9.2,10.648-16.7a23.612,23.612,0,0,0-19.36-.968c-5.808,2.42-10.406,7.744-12.826,14.278" transform="translate(-223.702 -250.689)"/><path class="c" d="M265.868,280.053c3.146,6.776,8.954,11.132,15.246,11.858s13.31-2.42,17.908-8.228a23.485,23.485,0,0,0-15.488-11.374c-6.292-1.21-13.068.726-18.634,4.84" transform="translate(-240.458 -271.953)"/><path class="c" d="M285.108,285.1c-7.26,0-14.036,3.146-17.424,8.47s-3.63,12.826-.484,19.844c7.018-.726,13.31-4.114,16.94-9.2a23.97,23.97,0,0,0,3.63-18.876" transform="translate(-240.338 -253.284)"/><path class="c" d="M282.451,301.31c-3.146,6.534-3.146,14.036.484,19.36,3.388,5.324,10.164,8.712,17.666,8.712a23.309,23.309,0,0,0-1.21-19.36c-3.146-5.566-8.47-8.228-15.488-9.922" transform="translate(-218.805 -231.983)"/></g><g transform="translate(22.861)"><path class="c" d="M335.766,360.194a12.863,12.863,0,0,0-4.6-2.9,22.347,22.347,0,0,0-6.292-1.21c-2.42,0-5.324.242-8.47.484s-6.776.484-10.648-.968c-3.63-1.21-6.776-4.6-8.712-8.47s-2.9-8.47-3.872-12.826c-.968-4.6-1.936-9.2-4.6-13.31s-6.292-7.018-9.922-9.922-7.018-5.808-9.438-9.438a31.006,31.006,0,0,1-4.6-21.78,30.556,30.556,0,0,1,5.808-14.036,19.189,19.189,0,0,1,2.9-3.146c.726-.726.968-.968,1.21-.968a5.372,5.372,0,0,1-.968,1.21c-.726.726-1.452,1.694-2.662,3.146a34.044,34.044,0,0,0-5.324,13.794c-.726,6.292,0,14.278,4.84,21.054,2.42,3.388,5.808,6.292,9.2,9.2s7.26,6.05,10.164,10.164c2.662,4.356,3.63,9.2,4.6,13.552.968,4.6,1.694,8.954,3.63,12.584,1.694,3.63,4.6,6.776,7.986,7.986a24.677,24.677,0,0,0,10.164.968,53.81,53.81,0,0,1,8.712-.242,21.818,21.818,0,0,1,6.534,1.452,11.539,11.539,0,0,1,3.388,2.178c.242.242.484.726.726.726Z" transform="translate(-264.247 -261.7)"/></g><g transform="translate(22.861)"><path class="c" d="M335.766,360.194a12.863,12.863,0,0,0-4.6-2.9,22.347,22.347,0,0,0-6.292-1.21c-2.42,0-5.324.242-8.47.484s-6.776.484-10.648-.968c-3.63-1.21-6.776-4.6-8.712-8.47s-2.9-8.47-3.872-12.826c-.968-4.6-1.936-9.2-4.6-13.31s-6.292-7.018-9.922-9.922-7.018-5.808-9.438-9.438a31.006,31.006,0,0,1-4.6-21.78,30.556,30.556,0,0,1,5.808-14.036,19.189,19.189,0,0,1,2.9-3.146c.726-.726.968-.968,1.21-.968a5.372,5.372,0,0,1-.968,1.21c-.726.726-1.452,1.694-2.662,3.146a34.044,34.044,0,0,0-5.324,13.794c-.726,6.292,0,14.278,4.84,21.054,2.42,3.388,5.808,6.292,9.2,9.2s7.26,6.05,10.164,10.164c2.662,4.356,3.63,9.2,4.6,13.552.968,4.6,1.694,8.954,3.63,12.584,1.694,3.63,4.6,6.776,7.986,7.986a24.677,24.677,0,0,0,10.164.968,53.81,53.81,0,0,1,8.712-.242,21.818,21.818,0,0,1,6.534,1.452,11.539,11.539,0,0,1,3.388,2.178c.242.242.484.726.726.726Z" transform="translate(-264.247 -261.7)"/></g></g><g transform="translate(0 70.664)"><path class="c" d="M225.63,324.559a29.387,29.387,0,0,0-39.93-28.8,49.087,49.087,0,0,0,38.72,28.556" transform="translate(-185.7 -196.299)"/><path class="c" d="M201.49,309.378c-5.566,6.292-5.324,16.214-1.21,23.716s11.132,12.584,18.15,17.424A38.409,38.409,0,0,0,201.974,307.2" transform="translate(-169.304 -177.245)"/><path class="c" d="M210.542,296.377a33.747,33.747,0,0,0,38.478,30.008c-2.178-9.2-5.808-18.392-12.826-24.442-7.018-6.292-18.15-8.47-25.894-3.388" transform="translate(-150.768 -193.527)"/><path class="c" d="M234.724,301.2c-1.452-8.228-9.68-14.278-18.15-15.246-8.47-.726-16.7,2.9-23.474,7.986A30.5,30.5,0,0,0,212.944,304.1a29.938,29.938,0,0,0,21.538-6.292" transform="translate(-175.192 -207.546)"/><path class="c" d="M197.217,322.962c-7.986,6.776-9.922,18.876-6.776,28.8s11.132,17.908,19.844,23.716c3.388-9.922,5.566-20.57,3.63-30.734-1.694-10.164-7.986-20.086-17.424-24.442" transform="translate(-181.003 -158.643)"/><path class="c" d="M209.7,288.777a24.663,24.663,0,0,1,38.962-2.178,21.161,21.161,0,0,1-38.236.968" transform="translate(-151.62 -218.596)"/><path class="c" d="M237.656,287.53a31.352,31.352,0,0,1-25.894-3.388A32.436,32.436,0,0,1,197,262.6c6.292-.484,12.826-.968,19.118.242s12.584,3.872,16.94,8.47c4.6,4.6,5.808,9.922,4.6,16.214" transform="translate(-169.654 -241.308)"/><path class="c" d="M227.08,293.672a27.585,27.585,0,0,1-9.68-20.086,26.507,26.507,0,0,1,9.438-20.086,54.465,54.465,0,0,1,11.374,24.2,20.646,20.646,0,0,1,0,10.164c-.968,3.146-3.63,6.05-7.018,6.534" transform="translate(-140.686 -253.5)"/><g class="d" transform="translate(0 97.484)"><path d="M225.63,324.559a29.387,29.387,0,0,0-39.93-28.8,49.087,49.087,0,0,0,38.72,28.556" transform="translate(-185.7 -293.782)"/></g><g class="d" transform="translate(27.942 129.955)"><path d="M201.49,309.378c-5.566,6.292-5.324,16.214-1.21,23.716s11.132,12.584,18.15,17.424A38.409,38.409,0,0,0,201.974,307.2" transform="translate(-197.246 -307.2)"/></g><g class="d" transform="translate(59.532 102.207)"><path d="M210.542,296.377a33.747,33.747,0,0,0,38.478,30.008c-2.178-9.2-5.808-18.392-12.826-24.442-7.018-6.292-18.15-8.47-25.894-3.388" transform="translate(-210.3 -295.734)"/></g><g class="d" transform="translate(17.908 78.316)"><path d="M234.724,301.2c-1.452-8.228-9.68-14.278-18.15-15.246-8.47-.726-16.7,2.9-23.474,7.986A30.5,30.5,0,0,0,212.944,304.1a29.938,29.938,0,0,0,21.538-6.292" transform="translate(-193.1 -285.862)"/></g><g class="d" transform="translate(8.005 161.657)"><path d="M197.217,322.962c-7.986,6.776-9.922,18.876-6.776,28.8s11.132,17.908,19.844,23.716c3.388-9.922,5.566-20.57,3.63-30.734-1.694-10.164-7.986-20.086-17.424-24.442" transform="translate(-189.008 -320.3)"/></g><g class="d" transform="translate(58.08 59.484)"><path d="M209.7,288.777a24.663,24.663,0,0,1,38.962-2.178,21.161,21.161,0,0,1-38.236.968" transform="translate(-209.7 -278.08)"/></g><g class="d" transform="translate(27.346 20.779)"><path d="M237.656,287.53a31.352,31.352,0,0,1-25.894-3.388A32.436,32.436,0,0,1,197,262.6c6.292-.484,12.826-.968,19.118.242s12.584,3.872,16.94,8.47c4.6,4.6,5.808,9.922,4.6,16.214" transform="translate(-197 -262.086)"/></g><g class="d" transform="translate(76.714)"><path d="M227.08,293.672a27.585,27.585,0,0,1-9.68-20.086,26.507,26.507,0,0,1,9.438-20.086,54.465,54.465,0,0,1,11.374,24.2,20.646,20.646,0,0,1,0,10.164c-.968,3.146-3.63,6.05-7.018,6.534" transform="translate(-217.4 -253.5)"/></g><g transform="translate(13.794 39.191)"><path class="c" d="M295.945,329v-2.662c0-1.694.242-4.114.242-7.26,0-6.292,0-15.73-4.356-26.378a40.91,40.91,0,0,0-10.648-15,27.979,27.979,0,0,0-19.36-7.018,24.915,24.915,0,0,0-10.89,2.662,22.281,22.281,0,0,0-8.47,7.986c-4.114,7.018-5.324,15.73-4.84,24.2.242,8.712,1.452,17.182.484,25.652a39.021,39.021,0,0,1-3.146,11.858,25.379,25.379,0,0,1-7.26,9.438,35.1,35.1,0,0,1-9.922,5.082,41.944,41.944,0,0,0-9.438,4.356A35.775,35.775,0,0,0,196,375.22a31.567,31.567,0,0,0-3.63,14.762,30.048,30.048,0,0,0,1.936,11.374c2.178,6.05,4.6,8.712,4.356,8.954l-.484-.484a9.214,9.214,0,0,1-1.21-1.452,39.094,39.094,0,0,1-3.388-6.534,31.035,31.035,0,0,1-2.178-11.616,35.331,35.331,0,0,1,3.388-15,38.111,38.111,0,0,1,12.584-14.036c5.808-3.872,13.31-4.84,19.118-9.438s8.954-12.342,9.922-20.328c.968-8.228-.242-16.7-.726-25.41s.726-17.666,5.082-24.926a23.14,23.14,0,0,1,8.954-8.47,27.317,27.317,0,0,1,11.374-2.9,29.043,29.043,0,0,1,20.086,7.5A42.443,42.443,0,0,1,291.831,292.7a56.018,56.018,0,0,1,3.63,15,64.245,64.245,0,0,1,.242,11.616c-.242,3.146-.484,5.566-.484,7.26,0,.726-.242,1.452-.242,1.936C295.945,328.756,295.945,329,295.945,329Z" transform="translate(-191.4 -269.695)"/><g class="d"><path d="M295.945,329v-2.662c0-1.694.242-4.114.242-7.26,0-6.292,0-15.73-4.356-26.378a40.91,40.91,0,0,0-10.648-15,27.979,27.979,0,0,0-19.36-7.018,24.915,24.915,0,0,0-10.89,2.662,22.281,22.281,0,0,0-8.47,7.986c-4.114,7.018-5.324,15.73-4.84,24.2.242,8.712,1.452,17.182.484,25.652a39.021,39.021,0,0,1-3.146,11.858,25.379,25.379,0,0,1-7.26,9.438,35.1,35.1,0,0,1-9.922,5.082,41.944,41.944,0,0,0-9.438,4.356A35.775,35.775,0,0,0,196,375.22a31.567,31.567,0,0,0-3.63,14.762,30.048,30.048,0,0,0,1.936,11.374c2.178,6.05,4.6,8.712,4.356,8.954l-.484-.484a9.214,9.214,0,0,1-1.21-1.452,39.094,39.094,0,0,1-3.388-6.534,31.035,31.035,0,0,1-2.178-11.616,35.331,35.331,0,0,1,3.388-15,38.111,38.111,0,0,1,12.584-14.036c5.808-3.872,13.31-4.84,19.118-9.438s8.954-12.342,9.922-20.328c.968-8.228-.242-16.7-.726-25.41s.726-17.666,5.082-24.926a23.14,23.14,0,0,1,8.954-8.47,27.317,27.317,0,0,1,11.374-2.9,29.043,29.043,0,0,1,20.086,7.5A42.443,42.443,0,0,1,291.831,292.7a56.018,56.018,0,0,1,3.63,15,64.245,64.245,0,0,1,.242,11.616c-.242,3.146-.484,5.566-.484,7.26,0,.726-.242,1.452-.242,1.936C295.945,328.756,295.945,329,295.945,329Z" transform="translate(-191.4 -269.695)"/></g></g></g><g transform="translate(164.503 90.565)"><path class="c" d="M376.671,319.505c-.242,0,1.694-2.9,1.694-8.47a23.089,23.089,0,0,0-2.178-9.922,20.47,20.47,0,0,0-9.438-9.2,19.1,19.1,0,0,0-7.5-1.936,26.082,26.082,0,0,0-8.47.968c-5.808,1.452-11.374,4.84-18.15,6.05a21.643,21.643,0,0,1-10.406-.242,14.732,14.732,0,0,1-8.47-6.776c-4.114-6.292-5.082-14.278-10.164-20.086a21.105,21.105,0,0,0-9.2-6.05,22.9,22.9,0,0,0-10.648-.968c-7.26.484-13.552,4.356-17.908,9.2a42.283,42.283,0,0,0-8.954,16.456,47.958,47.958,0,0,0-1.936,16.214c.484,10.164,2.178,18.15,2.9,23.716.484,2.662.726,4.84,1.21,6.534,0,.726.242,1.21.242,1.694v.484a.75.75,0,0,0-.242-.484,6.158,6.158,0,0,0-.484-1.694c-.242-1.452-.726-3.63-1.452-6.292-.968-5.566-2.9-13.552-3.388-23.716a50.049,50.049,0,0,1,1.936-16.456,42.615,42.615,0,0,1,8.954-16.94,31.642,31.642,0,0,1,8.228-6.534,26.034,26.034,0,0,1,10.406-3.146,25.13,25.13,0,0,1,11.132,1.21,21.753,21.753,0,0,1,9.68,6.292c5.082,6.292,6.292,14.278,10.164,20.086a15.066,15.066,0,0,0,7.744,6.292,19.7,19.7,0,0,0,9.922.242c6.534-1.21,12.1-4.356,17.908-6.05a26.8,26.8,0,0,1,8.712-.968,19.3,19.3,0,0,1,7.744,2.178,20.8,20.8,0,0,1,9.68,9.68,24.087,24.087,0,0,1,2.178,10.164,19.572,19.572,0,0,1-1.21,6.534C377.155,319.021,376.671,319.505,376.671,319.505Z" transform="translate(-253.676 -261.724)"/></g><path class="c" d="M276.826,278.669c6.292,3.872,15,4.356,20.812,1.452s9.68-9.2,10.648-16.7a23.611,23.611,0,0,0-19.36-.968c-5.808,2.42-10.406,7.744-12.826,14.278" transform="translate(-57.331 -172.431)"/><path class="c" d="M285.5,277.907c0,7.26,4.114,15,9.68,18.392,5.324,3.388,12.826,3.63,19.844.242-.726-7.018-4.114-13.31-9.2-16.94a23.154,23.154,0,0,0-18.876-3.388" transform="translate(-43.983 -151.583)"/><path class="c" d="M301.868,286.443c6.534,3.146,15.488,2.662,20.812-.968,5.324-3.388,8.712-10.164,8.712-17.666a24.27,24.27,0,0,0-19.36.968,23.155,23.155,0,0,0-11.132,15.73" transform="translate(-22.114 -164.717)"/><path class="c" d="M268.12,283.006c-5.566-4.84-9.2-13.31-8.228-19.6s5.808-12.1,12.826-15c4.84,5.324,7.26,11.858,6.534,18.15-.484,6.292-4.114,12.342-9.922,16.456" transform="translate(-80.569 -190.078)"/><g transform="translate(16.214)"><g transform="translate(22.022 36.666)"><path class="c" d="M201.5,268.367a.749.749,0,0,1,.242-.484l.726-1.452a43.631,43.631,0,0,1,3.388-5.324,55.645,55.645,0,0,1,16.7-15.73,44.022,44.022,0,0,1,15-5.566,36.358,36.358,0,0,1,18.15,1.936A30.134,30.134,0,0,1,271.2,254.331c3.63,6.292,4.6,13.552,6.776,20.57a34.936,34.936,0,0,0,4.356,9.68,29.555,29.555,0,0,0,7.26,7.26c2.662,1.936,5.566,3.872,8.228,6.05a38.337,38.337,0,0,1,6.776,7.26,48.531,48.531,0,0,1,7.018,16.94,60.9,60.9,0,0,1,.968,15.972,111.183,111.183,0,0,1-4.114,22.506c-.726,2.662-1.21,4.6-1.694,6.05l-.726,2.178a7.827,7.827,0,0,1,.484-2.178,51.919,51.919,0,0,1,1.452-6.05,120.778,120.778,0,0,0,3.63-22.506,68.345,68.345,0,0,0-.968-15.488,44.026,44.026,0,0,0-6.776-16.456,30.06,30.06,0,0,0-6.534-7.018c-2.662-2.178-5.566-3.872-8.228-6.05a32.5,32.5,0,0,1-7.744-7.5,48.339,48.339,0,0,1-4.6-10.164c-2.178-7.018-3.146-14.278-6.776-20.328-3.388-6.05-8.954-9.922-14.762-12.342a37.323,37.323,0,0,0-17.666-1.936,38.479,38.479,0,0,0-14.52,5.324,55.106,55.106,0,0,0-16.7,15.246c-1.694,2.178-2.662,3.872-3.63,5.082A8.16,8.16,0,0,1,201.5,268.367Z" transform="translate(-201.5 -239.451)"/></g><path class="c" d="M252.693,262.512c-1.936-1.694-2.9-.484-5.324,0-2.662.484-4.84,1.936-7.018,3.388-8.954,7.018-12.826,19.844-9.438,30.734a22.867,22.867,0,0,0,21.054-34.364" transform="translate(-139.437 -171.277)"/><path class="c" d="M226.764,248.877c-.968-2.42-2.42-1.694-4.84-2.42a14.059,14.059,0,0,0-7.744.242c-11.132,2.662-20.328,12.342-21.78,23.716,7.26,3.872,16.7,3.63,23.474-.968a23.1,23.1,0,0,0,10.406-21.054" transform="translate(-192.4 -193.459)"/><path class="c" d="M270.824,287.5a27.535,27.535,0,0,0-21.3-9.2A26.4,26.4,0,0,0,229.2,289.439a32.588,32.588,0,0,0,21.538,8.47c7.986,0,15.73-3.63,21.78-8.712" transform="translate(-140.144 -147.626)"/><path class="c" d="M245.084,286.191a27.758,27.758,0,0,0,21.3-9.438,27.094,27.094,0,0,0,5.808-22.506,24.088,24.088,0,0,0-28.072,31.7" transform="translate(-120.938 -182.614)"/><path class="c" d="M232.626,264.132a27.074,27.074,0,0,0,23.232-1.936,27.362,27.362,0,0,0,13.068-19.36,24.958,24.958,0,0,0-24.684-.726,24.607,24.607,0,0,0-12.342,21.3" transform="translate(-136.31 -203.148)"/><path class="c" d="M249.7,244.732a27.073,27.073,0,0,0-23.232,1.936,27.363,27.363,0,0,0-13.068,19.36,24.958,24.958,0,0,0,24.684.726,24.607,24.607,0,0,0,12.342-21.3" transform="translate(-162.58 -197.783)"/><path class="c" d="M227.7,263.746a28.3,28.3,0,0,0,16.7-16.214,27.185,27.185,0,0,0-2.42-23.232,25.105,25.105,0,0,0-19.36,15.246,24.4,24.4,0,0,0,4.114,24.2" transform="translate(-151.714 -224.3)"/><path class="c" d="M226.912,262.116A26.917,26.917,0,0,0,204.89,226.3a24.943,24.943,0,0,0-.242,24.684,24.625,24.625,0,0,0,21.538,11.858" transform="translate(-179.479 -221.46)"/></g><g transform="translate(113.015 206.989)"><path class="e" d="M333.073,311.449a7.153,7.153,0,0,0-.726.968c-.484.484-1.21,1.452-2.178,2.42a38.646,38.646,0,0,1-9.68,6.776,43.672,43.672,0,0,1-17.182,4.356A30.993,30.993,0,0,1,292.9,325a46.191,46.191,0,0,1-10.648-3.63c-7.018-2.9-13.552-6.534-19.6-8.47-6.292-1.936-12.1-2.662-16.94-1.694a23.146,23.146,0,0,0-10.406,4.84,15.873,15.873,0,0,0-2.9,3.146,2.648,2.648,0,0,0,.484-.968,9.208,9.208,0,0,1,2.178-2.42,20.765,20.765,0,0,1,10.648-5.324c5.082-1.21,11.132-.726,17.666,1.452,6.292,1.936,12.826,5.324,19.844,8.47a57.939,57.939,0,0,0,10.406,3.388,48.217,48.217,0,0,0,10.164.968,41.3,41.3,0,0,0,16.7-4.114C328.958,316.531,332.831,311.206,333.073,311.449Z" transform="translate(-232.4 -309.832)"/></g><g transform="translate(111.321 199.4)"><path class="e" d="M335.035,307.431a7.161,7.161,0,0,0-.726.968,27,27,0,0,1-2.42,2.178,54.243,54.243,0,0,1-10.164,6.292,48.441,48.441,0,0,1-17.182,4.114,38.385,38.385,0,0,1-10.406-.726,61.521,61.521,0,0,1-10.89-3.146c-7.26-2.662-13.794-5.566-20.086-7.5s-12.342-2.42-17.182-1.452a29.245,29.245,0,0,0-10.89,4.114c-2.178,1.694-3.146,2.9-3.388,2.662a7.157,7.157,0,0,0,.726-.968,11.314,11.314,0,0,1,2.42-2.178,24.123,24.123,0,0,1,10.89-4.6c5.082-.968,11.132-.484,17.666,1.21s13.068,4.84,20.328,7.26a88.6,88.6,0,0,0,10.648,3.146,36.658,36.658,0,0,0,10.164.726,48.513,48.513,0,0,0,16.94-3.872C330.679,312.029,334.793,307.189,335.035,307.431Z" transform="translate(-231.7 -306.696)"/></g></g><path class="a" d="M272.952,209.026A12.826,12.826,0,1,1,260.126,196.2,12.911,12.911,0,0,1,272.952,209.026Z" transform="translate(87.473 78.078)"/><g transform="translate(293.086 519.909)"><path class="a" d="M343.394,297.7a2.648,2.648,0,0,1-.968.484,27.128,27.128,0,0,0-3.146,1.21c-1.452.484-3.146,1.21-5.082,1.694s-4.356,1.452-6.776,1.936a133.142,133.142,0,0,1-18.15,3.63,160.752,160.752,0,0,1-22.506,1.694,214.178,214.178,0,0,1-22.506-1.21,143.991,143.991,0,0,1-18.15-3.388,38.214,38.214,0,0,1-6.776-1.936c-1.936-.484-3.63-1.21-5.082-1.694a21.611,21.611,0,0,1-3.146-1.21c-.726-.242-1.21-.484-.968-.484a4.235,4.235,0,0,1,1.21.242,22.478,22.478,0,0,1,3.146.968q2.178.726,5.082,1.452c1.936.484,4.356,1.21,6.776,1.694a143.032,143.032,0,0,0,18.15,2.9,214.194,214.194,0,0,0,22.506,1.21,163.643,163.643,0,0,0,22.506-1.694c6.776-.968,13.068-2.178,17.908-3.388,2.662-.484,4.84-1.21,6.776-1.694s3.63-.968,5.082-1.452c1.21-.484,2.42-.726,3.146-.968Z" transform="translate(-230.074 -297.7)"/></g><g transform="translate(292.665 523.539)"><path class="a" d="M269.1,305.008a4.236,4.236,0,0,1-.242,1.21c-.242.726-.726,1.936-1.21,3.388-.968,2.9-2.662,7.26-4.84,12.342a188.227,188.227,0,0,1-8.47,17.908c-1.694,3.388-3.63,6.776-5.566,10.164-.968,1.694-2.178,3.63-3.146,5.324a10.745,10.745,0,0,1-1.936,2.662,4.214,4.214,0,0,1-3.388,1.21c-2.662-.242-4.114-2.662-4.84-4.6-.484-2.178-.726-4.114-1.21-6.05-.484-4.114-1.21-7.744-1.694-11.616-.968-7.26-1.452-14.036-1.936-19.6s-.726-10.164-.726-13.31V299.2a4.235,4.235,0,0,0,.242,1.21c0,.968.242,2.178.242,3.63.242,3.388.726,7.744,1.21,13.31s1.21,12.1,2.178,19.6c.484,3.63.968,7.5,1.694,11.616a52.4,52.4,0,0,0,.968,6.05,5.674,5.674,0,0,0,1.21,2.42,3.361,3.361,0,0,0,2.42,1.21c1.694.242,3.146-1.694,4.114-3.388s2.178-3.63,3.146-5.324c1.936-3.388,3.872-6.776,5.566-10.164,3.388-6.534,6.292-12.584,8.47-17.666s3.872-9.2,5.082-12.342a23.589,23.589,0,0,1,1.452-3.388A2.677,2.677,0,0,0,269.1,305.008Z" transform="translate(-229.9 -299.2)"/></g><g transform="translate(331.869 526.443)"><path class="a" d="M294.5,300.4a4.235,4.235,0,0,1-.242,1.21c-.242.968-.484,1.936-.968,3.388-.968,3.146-2.178,7.26-3.63,12.584s-3.388,11.616-5.324,18.392a45.164,45.164,0,0,1-1.694,5.324c-.484,1.694-.968,3.63-1.694,5.566a14.8,14.8,0,0,1-3.146,5.324,9.923,9.923,0,0,1-5.566,3.146,8.229,8.229,0,0,1-6.292-1.452,14.849,14.849,0,0,1-4.114-4.6c-1.694-3.63-3.146-7.26-4.6-10.648-2.662-6.776-4.6-13.068-6.292-18.15q-2.541-7.986-3.63-12.342c-.484-1.452-.726-2.42-.968-3.388a4.235,4.235,0,0,1-.242-1.21,10.178,10.178,0,0,1,.484,1.21c.242.968.726,1.936,1.21,3.388.968,3.146,2.42,7.26,4.114,12.342s3.872,11.374,6.534,18.15c1.452,3.388,2.9,7.018,4.6,10.406a13.26,13.26,0,0,0,3.872,4.356,8.9,8.9,0,0,0,5.324,1.452,7.791,7.791,0,0,0,4.84-2.9,19.782,19.782,0,0,0,2.9-4.84,37.415,37.415,0,0,0,1.694-5.566c.484-1.936,1.21-3.63,1.694-5.324,2.178-6.776,4.114-13.068,5.566-18.392,1.694-5.082,2.9-9.2,3.872-12.342a26.282,26.282,0,0,1,1.21-3.388C294.258,300.642,294.5,300.4,294.5,300.4Z" transform="translate(-246.1 -300.4)"/></g><g transform="translate(380.511 519.802)"><path class="a" d="M292.094,297.763s.242-.242.242,0,.242.484.242.968v3.388c-.242,2.9-.726,7.26-1.452,12.826-.726,5.324-1.694,11.858-2.9,18.634-.484,3.63-.968,7.26-1.694,11.132l-.726,5.808c-.242.968-.242,1.936-.484,2.9l-.242,1.452a2.2,2.2,0,0,1-.726,1.694,4,4,0,0,1-3.146,1.936,2.037,2.037,0,0,1-1.694-.968,2.092,2.092,0,0,1-.726-1.452l-1.452-5.808c-.968-3.872-1.936-7.5-2.662-10.89-1.694-6.776-3.388-13.068-4.6-18.392q-1.815-7.623-2.9-12.342c-.242-1.452-.484-2.42-.726-3.388a4.235,4.235,0,0,1-.242-1.21,10.166,10.166,0,0,1,.484,1.21c.242.968.484,1.936.968,3.388.968,3.146,1.936,7.26,3.388,12.342,1.452,5.324,3.146,11.374,4.84,18.392q1.452,5.082,2.9,10.89l1.452,5.808q.363,1.452,1.452,1.452a2.468,2.468,0,0,0,1.936-1.21C288.222,324.383,293.546,297.279,292.094,297.763Z" transform="translate(-266.2 -297.656)"/></g></g></svg>